<svg width="63" height="63" viewBox="0 0 63 63" fill="none" xmlns="http://www.w3.org/2000/svg">
<rect width="63" height="63" rx="31.5" fill="#E6F1FE"/>
<path opacity="0.4" d="M24.459 15.0833H32.0557C32.2127 15.0833 32.3477 15.2183 32.3477 15.3752V20.553C32.3477 25.6276 36.4771 29.7571 41.5518 29.7571H46.7295C46.8865 29.7571 47.0215 29.8921 47.0215 30.0491V39.4368C47.0215 42.2667 46.0452 44.35 44.5742 45.7317C43.0883 47.1273 40.9796 47.9162 38.542 47.9163H24.459C22.0212 47.9162 19.9127 47.1273 18.4268 45.7317C16.9557 44.35 15.9795 42.2668 15.9795 39.4368V23.5627C15.9795 20.7327 16.9556 18.6495 18.4268 17.2678C19.9127 15.8722 22.0212 15.0833 24.459 15.0833Z" fill="#0066FF" stroke="url(#paint0_linear_74_69)" stroke-width="3"/>
<path d="M37.8018 15.5771C40.2786 18.0597 44.0017 21.8209 46.4629 24.3018C44.6541 24.3015 42.7034 24.2995 41.2451 24.2842H41.2285C39.312 24.284 37.8019 22.7489 37.8018 21.001V15.5771Z" fill="#0066FF" stroke="url(#paint1_linear_74_69)" stroke-width="3"/>
<mask id="path-4-inside-1_74_69" fill="white">
<path d="M32.0014 36.3733C31.4818 35.8538 30.6218 35.8538 30.1023 36.3733L28.8123 37.6633V30.1562C28.8123 29.4217 28.2031 28.8125 27.4685 28.8125C26.7339 28.8125 26.1248 29.4217 26.1248 30.1562V37.6633L24.8348 36.3733C24.3152 35.8538 23.4552 35.8538 22.9356 36.3733C22.416 36.8929 22.416 37.7529 22.9356 38.2725L26.5189 41.8558C26.5368 41.8738 26.5548 41.8737 26.5548 41.8917C26.6623 41.9992 26.8056 42.0888 26.9489 42.1604C27.1281 42.2142 27.2893 42.25 27.4685 42.25C27.6477 42.25 27.8089 42.2142 27.9702 42.1425C28.1314 42.0708 28.2748 41.9813 28.4181 41.8558L32.0014 38.2725C32.521 37.7529 32.521 36.8929 32.0014 36.3733Z"/>
</mask>
<path d="M32.0014 36.3733C31.4818 35.8538 30.6218 35.8538 30.1023 36.3733L28.8123 37.6633V30.1562C28.8123 29.4217 28.2031 28.8125 27.4685 28.8125C26.7339 28.8125 26.1248 29.4217 26.1248 30.1562V37.6633L24.8348 36.3733C24.3152 35.8538 23.4552 35.8538 22.9356 36.3733C22.416 36.8929 22.416 37.7529 22.9356 38.2725L26.5189 41.8558C26.5368 41.8738 26.5548 41.8737 26.5548 41.8917C26.6623 41.9992 26.8056 42.0888 26.9489 42.1604C27.1281 42.2142 27.2893 42.25 27.4685 42.25C27.6477 42.25 27.8089 42.2142 27.9702 42.1425C28.1314 42.0708 28.2748 41.9813 28.4181 41.8558L32.0014 38.2725C32.521 37.7529 32.521 36.8929 32.0014 36.3733Z" fill="#0066FF"/>
<path d="M30.1023 36.3733L32.2236 38.4947L32.2236 38.4947L30.1023 36.3733ZM28.8123 37.6633H25.8123V44.906L30.9336 39.7847L28.8123 37.6633ZM26.1248 37.6633L24.0034 39.7847L29.1248 44.906V37.6633H26.1248ZM24.8348 36.3733L22.7134 38.4947L22.7134 38.4947L24.8348 36.3733ZM22.9356 38.2725L25.0569 36.1512L25.0569 36.1512L22.9356 38.2725ZM26.5189 41.8558L24.3976 43.9772H24.3976L26.5189 41.8558ZM26.5548 41.8917H23.5548V43.1343L24.4334 44.013L26.5548 41.8917ZM26.9489 42.1604L25.6073 44.8437L25.8389 44.9595L26.0869 45.0339L26.9489 42.1604ZM28.4181 41.8558L30.3936 44.1136L30.4688 44.0478L30.5394 43.9772L28.4181 41.8558ZM32.0014 38.2725L29.8801 36.1512L29.8801 36.1512L32.0014 38.2725ZM32.0014 36.3733L34.1227 34.252C32.4316 32.5609 29.6721 32.5609 27.9809 34.252L30.1023 36.3733L32.2236 38.4947C31.5716 39.1466 30.5321 39.1466 29.8801 38.4947L32.0014 36.3733ZM30.1023 36.3733L27.9809 34.252L26.6909 35.542L28.8123 37.6633L30.9336 39.7847L32.2236 38.4947L30.1023 36.3733ZM28.8123 37.6633H31.8123V30.1562H28.8123H25.8123V37.6633H28.8123ZM28.8123 30.1562H31.8123C31.8123 27.7648 29.8599 25.8125 27.4685 25.8125V28.8125V31.8125C26.5462 31.8125 25.8123 31.0785 25.8123 30.1562H28.8123ZM27.4685 28.8125V25.8125C25.0771 25.8125 23.1248 27.7648 23.1248 30.1562H26.1248H29.1248C29.1248 31.0785 28.3908 31.8125 27.4685 31.8125V28.8125ZM26.1248 30.1562H23.1248V37.6633H26.1248H29.1248V30.1562H26.1248ZM26.1248 37.6633L28.2461 35.542L26.9561 34.252L24.8348 36.3733L22.7134 38.4947L24.0034 39.7847L26.1248 37.6633ZM24.8348 36.3733L26.9561 34.252C25.2649 32.5609 22.5054 32.5609 20.8143 34.252L22.9356 36.3733L25.0569 38.4947C24.4049 39.1466 23.3654 39.1466 22.7134 38.4947L24.8348 36.3733ZM22.9356 36.3733L20.8143 34.252C19.1231 35.9432 19.1231 38.7027 20.8143 40.3938L22.9356 38.2725L25.0569 36.1512C25.7089 36.8032 25.7089 37.8427 25.0569 38.4947L22.9356 36.3733ZM22.9356 38.2725L20.8143 40.3938L24.3976 43.9772L26.5189 41.8558L28.6402 39.7345L25.0569 36.1512L22.9356 38.2725ZM26.5189 41.8558L24.3976 43.9772C24.5832 44.1628 24.7567 44.2884 24.8681 44.3627C24.9177 44.3957 24.9593 44.4213 24.9608 44.4222C24.9779 44.4327 24.9301 44.4037 24.8796 44.37C24.7947 44.3134 24.419 44.0656 24.094 43.6015C23.7102 43.0532 23.5548 42.4431 23.5548 41.8917H26.5548H29.5548C29.5548 41.3313 29.397 40.7144 29.0093 40.1606C28.6805 39.6908 28.2991 39.4385 28.2075 39.3775C28.1536 39.3416 28.1022 39.3103 28.1155 39.3185C28.1155 39.3185 28.1182 39.3202 28.1217 39.3223C28.1254 39.3246 28.131 39.3281 28.1379 39.3325C28.1515 39.3411 28.1718 39.354 28.1961 39.3703C28.2991 39.4389 28.4636 39.5579 28.6402 39.7345L26.5189 41.8558ZM26.5548 41.8917L24.4334 44.013C24.8618 44.4413 25.3227 44.7014 25.6073 44.8437L26.9489 42.1604L28.2906 39.4771C28.3049 39.4843 28.3451 39.5051 28.4025 39.5433C28.4573 39.5799 28.5582 39.6525 28.6761 39.7703L26.5548 41.8917ZM26.9489 42.1604L26.0869 45.0339C26.3871 45.124 26.8684 45.25 27.4685 45.25V42.25V39.25C27.7103 39.25 27.869 39.3044 27.811 39.2869L26.9489 42.1604ZM27.4685 42.25V45.25C28.0829 45.25 28.6582 45.1197 29.1886 44.8839L27.9702 42.1425L26.7518 39.4011C26.8435 39.3603 26.9583 39.3198 27.0921 39.2909C27.2264 39.2618 27.3542 39.25 27.4685 39.25V42.25ZM27.9702 42.1425L29.1886 44.8839C29.6184 44.6929 30.0182 44.4421 30.3936 44.1136L28.4181 41.8558L26.4426 39.5981C26.4794 39.5659 26.5292 39.5272 26.5902 39.4883C26.6513 39.4495 26.7074 39.4208 26.7518 39.4011L27.9702 42.1425ZM28.4181 41.8558L30.5394 43.9772L34.1227 40.3938L32.0014 38.2725L29.8801 36.1512L26.2968 39.7345L28.4181 41.8558ZM32.0014 38.2725L34.1227 40.3938C35.8139 38.7027 35.8139 35.9432 34.1227 34.252L32.0014 36.3733L29.8801 38.4947C29.2281 37.8427 29.2281 36.8032 29.8801 36.1512L32.0014 38.2725Z" fill="url(#paint2_linear_74_69)" mask="url(#path-4-inside-1_74_69)"/>
<defs>
<linearGradient id="paint0_linear_74_69" x1="31.5003" y1="13.5833" x2="31.5003" y2="49.4166" gradientUnits="userSpaceOnUse">
<stop stop-color="white"/>
<stop offset="1" stop-color="white" stop-opacity="0.1"/>
</linearGradient>
<linearGradient id="paint1_linear_74_69" x1="42.3962" y1="13.6104" x2="42.3962" y2="25.8024" gradientUnits="userSpaceOnUse">
<stop stop-color="white"/>
<stop offset="1" stop-color="white" stop-opacity="0.1"/>
</linearGradient>
<linearGradient id="paint2_linear_74_69" x1="27.4685" y1="28.8125" x2="27.4685" y2="42.25" gradientUnits="userSpaceOnUse">
<stop stop-color="white"/>
<stop offset="1" stop-color="white" stop-opacity="0.1"/>
</linearGradient>
</defs>
</svg>
