<svg width="14" height="14" viewBox="0 0 14 14" fill="none" xmlns="http://www.w3.org/2000/svg">
<path d="M13.8535 3.14628C13.8071 3.0998 13.752 3.06292 13.6913 3.03775C13.6306 3.01259 13.5655 2.99964 13.4998 2.99964C13.4341 2.99964 13.369 3.01259 13.3083 3.03775C13.2476 3.06292 13.1925 3.0998 13.146 3.14628L10.9998 5.29316L8.70667 3.00003L10.8535 0.853784C10.9474 0.759964 11.0001 0.632716 11.0001 0.500034C11.0001 0.367352 10.9474 0.240104 10.8535 0.146284C10.7597 0.0524636 10.6325 -0.000244141 10.4998 -0.000244141C10.3671 -0.000244141 10.2399 0.0524636 10.146 0.146284L7.99979 2.29316L6.35354 0.646284C6.25972 0.552464 6.13247 0.499756 5.99979 0.499756C5.86711 0.499756 5.73986 0.552464 5.64604 0.646284C5.55222 0.740104 5.49951 0.867352 5.49951 1.00003C5.49951 1.13272 5.55222 1.25996 5.64604 1.35378L6.04291 1.75003L2.73041 5.06253C2.49825 5.29468 2.31409 5.57029 2.18845 5.87361C2.0628 6.17693 1.99814 6.50203 1.99814 6.83035C1.99814 7.15866 2.0628 7.48376 2.18845 7.78709C2.31409 8.09041 2.49825 8.36601 2.73041 8.59816L3.71229 9.58003L0.64604 12.6463C0.599585 12.6927 0.562734 12.7479 0.537593 12.8086C0.512452 12.8693 0.499512 12.9343 0.499512 13C0.499512 13.0657 0.512452 13.1308 0.537593 13.1915C0.562734 13.2522 0.599585 13.3073 0.64604 13.3538C0.73986 13.4476 0.867108 13.5003 0.99979 13.5003C1.06549 13.5003 1.13054 13.4874 1.19124 13.4622C1.25193 13.4371 1.30708 13.4002 1.35354 13.3538L4.42166 10.2857L5.40354 11.2675C5.63569 11.4997 5.91129 11.6839 6.21461 11.8095C6.51794 11.9351 6.84304 11.9998 7.17135 11.9998C7.49967 11.9998 7.82477 11.9351 8.12809 11.8095C8.43141 11.6839 8.70702 11.4997 8.93917 11.2675L12.2517 7.95503L12.6479 8.35191C12.6944 8.39837 12.7495 8.43521 12.8102 8.46036C12.8709 8.4855 12.936 8.49844 13.0017 8.49844C13.0674 8.49844 13.1324 8.4855 13.1931 8.46036C13.2538 8.43521 13.309 8.39837 13.3554 8.35191C13.4019 8.30545 13.4387 8.2503 13.4639 8.18961C13.489 8.12891 13.5019 8.06386 13.5019 7.99816C13.5019 7.93246 13.489 7.86741 13.4639 7.80671C13.4387 7.74601 13.4019 7.69086 13.3554 7.64441L11.7067 6.00003L13.8535 3.85378C13.9 3.80735 13.9369 3.7522 13.9621 3.6915C13.9872 3.63081 14.0002 3.56574 14.0002 3.50003C14.0002 3.43433 13.9872 3.36926 13.9621 3.30856C13.9369 3.24786 13.9 3.19272 13.8535 3.14628ZM8.23229 10.5625C8.09299 10.7019 7.9276 10.8125 7.74556 10.8879C7.56352 10.9633 7.3684 11.0022 7.17135 11.0022C6.9743 11.0022 6.77919 10.9633 6.59715 10.8879C6.41511 10.8125 6.24971 10.7019 6.11041 10.5625L3.43729 7.88941C3.29792 7.75011 3.18736 7.58472 3.11193 7.40268C3.0365 7.22064 2.99767 7.02552 2.99767 6.82847C2.99767 6.63142 3.0365 6.4363 3.11193 6.25426C3.18736 6.07223 3.29792 5.90683 3.43729 5.76753L6.74979 2.45503L11.5429 7.25003L8.23229 10.5625Z" fill="white"/>
</svg>
