<svg xmlns="http://www.w3.org/2000/svg" version="1.1" xmlns:xlink="http://www.w3.org/1999/xlink" xmlns:svgjs="http://svgjs.dev/svgjs" width="1199.99" height="1103.24"><svg version="1.1" viewBox="0 0 1199.99 1103.24" id="SvgjsSvg1061" sodipodi:docname="logo7840-01.svg" width="1199.99" height="1103.24" inkscape:version="1.3 (0e150ed, 2023-07-21)" xmlns:inkscape="http://www.inkscape.org/namespaces/inkscape" xmlns:sodipodi="http://sodipodi.sourceforge.net/DTD/sodipodi-0.dtd" xmlns="http://www.w3.org/2000/svg" xmlns:svg="http://www.w3.org/2000/svg">
  <sodipodi:namedview id="SvgjsSodipodi:namedview1060" pagecolor="#ffffff" bordercolor="#000000" borderopacity="0.25" inkscape:showpageshadow="2" inkscape:pageopacity="0.0" inkscape:pagecheckerboard="0" inkscape:deskcolor="#d1d1d1" inkscape:zoom="0.15733333" inkscape:cx="591.10169" inkscape:cy="594.27966" inkscape:window-width="1512" inkscape:window-height="916" inkscape:window-x="0" inkscape:window-y="38" inkscape:window-maximized="1" inkscape:current-layer="svg7"></sodipodi:namedview>
  <defs id="SvgjsDefs1059">
    <style id="SvgjsStyle1058">
      .cls-1 {
        fill: #3b82f6;
      }
    </style>
  </defs>
  <!-- Generator: Adobe Illustrator 28.6.0, SVG Export Plug-In . SVG Version: 1.2.0 Build 709)  -->
  <g id="SvgjsG1057" transform="translate(-150.01,-198.38)">
    <g id="SvgjsG1056">
      <g id="SvgjsG1055">
        <path class="cls-1" d="m 750,619.02 c -72.22,0 -130.98,58.76 -130.98,130.98 0,72.22 58.76,130.98 130.98,130.98 72.22,0 130.98,-58.76 130.98,-130.98 0,-72.22 -58.76,-130.98 -130.98,-130.98 z m 0,205.33 c -41,0 -74.35,-33.35 -74.35,-74.35 0,-41 33.35,-74.35 74.35,-74.35 41,0 74.35,33.35 74.35,74.35 0,41 -33.36,74.35 -74.35,74.35 z" id="SvgjsPath1054"></path>
        <circle class="cls-1" cx="887.94" cy="418.73001" r="44.32" transform="rotate(-22.5,887.93063,418.7265)" id="SvgjsCircle1053"></circle>
        <path class="cls-1" d="m 420.64,713.09 c -10.76,-6.03 -24.07,1.76 -24.07,14.1 v 45.61 c 0,12.34 13.31,20.13 24.07,14.1 l 15.32,-8.61 h 169.29 v -56.6 H 435.96 l -15.32,-8.61 z" id="SvgjsPath1052"></path>
        <circle class="cls-1" cx="612.06" cy="418.73001" r="44.32" transform="rotate(-15.48,612.13181,418.75256)" id="SvgjsCircle1051"></circle>
        <path class="cls-1" d="m 1079.35,713.09 -15.32,8.61 H 894.67 v 56.6 h 169.36 l 15.32,8.61 c 10.76,6.03 24.07,-1.76 24.07,-14.1 V 727.2 c 0,-12.34 -13.31,-20.13 -24.07,-14.1 z" id="SvgjsPath1050"></path>
        <path class="cls-1" d="m 1179.87,705.67 c -24.46,0 -44.31,19.85 -44.31,44.34 0,24.49 19.85,44.31 44.31,44.31 24.46,0 44.31,-19.85 44.31,-44.31 0,-24.46 -19.82,-44.34 -44.31,-44.34 z" id="SvgjsPath1049"></path>
        <circle class="cls-1" cx="887.94" cy="1081.27" r="44.32" transform="rotate(-22.5,887.925,1081.2573)" id="SvgjsCircle1048"></circle>
        <path class="cls-1" d="m 1350,750 c 0,-99.12 -64.94,-183.32 -154.49,-212.41 27.99,-40.62 29.05,-96.17 -1.44,-138.41 v 0 c -27.47,-38.06 -73.27,-55.19 -116.72,-48.13 -15.76,-86.7 -91.77,-152.67 -182.94,-152.67 -2.11,0 -4.21,0.04 -6.3,0.11 -45.05,1.5 -87.09,20.56 -118.38,53.67 -7.39,7.82 -13.96,16.23 -19.72,25.09 -5.76,-8.87 -12.33,-17.28 -19.72,-25.09 C 699,219.05 656.96,200 611.9,198.49 c -2.09,-0.07 -4.19,-0.11 -6.3,-0.11 -91.17,0 -167.18,65.97 -182.94,152.67 -43.45,-7.06 -89.25,10.08 -116.72,48.13 -30.49,42.23 -29.43,97.78 -1.44,138.41 -89.55,29.09 -154.49,113.29 -154.49,212.41 0,99.12 64.91,183.28 154.42,212.38 -10.02,14.49 -16.77,31.15 -19.66,49.06 -5.11,31.64 2.41,63.38 21.17,89.36 v 0 c 23.43,32.45 60.19,49.72 97.45,49.72 6.43,0 12.88,-0.53 19.27,-1.57 15.77,86.7 91.77,152.66 182.94,152.66 2.1,0 4.19,-0.04 6.28,-0.1 45.07,-1.51 87.12,-20.57 118.41,-53.67 7.39,-7.82 13.96,-16.23 19.72,-25.09 5.76,8.87 12.33,17.28 19.72,25.09 31.29,33.11 73.33,52.16 118.38,53.67 2.1,0.07 4.2,0.11 6.3,0.11 91.17,0 167.17,-65.96 182.94,-152.66 6.4,1.04 12.84,1.57 19.27,1.57 37.27,0 74.03,-17.26 97.45,-49.72 0,0 0,0 0,0 18.76,-25.99 26.28,-57.72 21.16,-89.36 -2.89,-17.91 -9.64,-34.57 -19.66,-49.06 89.52,-29.11 154.42,-113.29 154.42,-212.38 z M 1059.69,418.04 c 28.34,-20.45 68.02,-14.04 88.47,14.29 v 0 c 20.45,28.33 14.04,68.02 -14.29,88.47 -28.33,20.45 -68.02,14.04 -88.47,-14.29 -20.45,-28.33 -14.04,-68.02 14.29,-88.47 z m -707.85,14.29 c 12.37,-17.14 31.79,-26.26 51.46,-26.26 12.85,0 25.81,3.89 37,11.97 13.72,9.91 22.77,24.56 25.47,41.27 2.7,16.71 -1.27,33.47 -11.18,47.19 -9.91,13.73 -24.56,22.77 -41.27,25.47 -16.72,2.7 -33.47,-1.27 -47.2,-11.18 -28.33,-20.45 -34.73,-60.14 -14.29,-88.47 z m 88.47,649.63 c -28.32,20.45 -68.01,14.04 -88.47,-14.29 -9.91,-13.72 -13.88,-30.48 -11.18,-47.19 2.7,-16.71 11.74,-31.36 25.47,-41.27 10.92,-7.88 23.75,-12.01 36.96,-12.01 3.4,0 6.82,0.27 10.24,0.83 16.71,2.7 31.37,11.74 41.27,25.47 20.45,28.33 14.04,68.02 -14.29,88.47 z m 707.85,-14.29 c -20.45,28.33 -60.13,34.75 -88.47,14.29 -28.33,-20.45 -34.74,-60.14 -14.29,-88.47 9.91,-13.72 24.56,-22.77 41.27,-25.47 16.7,-2.7 33.47,1.27 47.19,11.18 13.72,9.91 22.77,24.56 25.47,41.27 2.7,16.71 -1.27,33.47 -11.18,47.19 z m -14.1,-151.18 c -17.97,-5.9 -37.21,-7.48 -56.42,-4.37 -21.88,3.53 -41.91,12.82 -58.38,26.81 l -101.08,-76.86 -34.27,45.07 102.01,77.57 c -20.27,49 -5.98,107.16 37.44,140.73 -5.05,66.76 -60.94,119.54 -128.95,119.54 -1.48,0 -2.96,-0.02 -4.43,-0.07 -61.56,-2.05 -111.65,-54.93 -111.65,-117.88 V 952.25 h -56.65 v 174.78 c 0,62.95 -50.1,115.83 -111.68,117.88 -1.45,0.05 -2.93,0.07 -4.41,0.07 -68.02,0 -123.9,-52.79 -128.95,-119.54 43.42,-33.58 57.71,-91.73 37.44,-140.73 l 102.01,-77.57 -34.27,-45.07 -101.08,76.86 c -16.48,-13.99 -36.5,-23.28 -58.38,-26.81 -19.2,-3.1 -38.44,-1.52 -56.41,4.37 -88.5,-3.87 -159.32,-77.05 -159.32,-166.49 0,-89.44 70.78,-162.59 159.25,-166.49 11.93,3.92 24.42,5.93 37.09,5.93 6.43,0 12.91,-0.52 19.39,-1.56 21.88,-3.54 41.9,-12.82 58.38,-26.81 l 101.08,76.86 34.27,-45.07 -101.98,-77.54 c 8.47,-20.36 11.17,-42.71 7.57,-65.02 -4.9,-30.32 -20.85,-57.05 -45.04,-75.74 5.06,-66.76 60.94,-119.54 128.95,-119.54 1.48,0 2.94,0.02 4.41,0.07 61.58,2.05 111.68,54.93 111.68,117.88 v 174.78 h 56.65 V 372.97 c 0,-62.94 50.1,-115.82 111.67,-117.88 1.47,-0.05 2.94,-0.07 4.41,-0.07 68.02,0 123.9,52.79 128.95,119.54 -43.42,33.58 -57.71,91.73 -37.44,140.73 l -102.01,77.57 34.27,45.07 101.1,-76.88 c 21.98,18.59 49.68,28.32 77.65,28.32 12.45,0 24.94,-1.94 37.02,-5.87 88.55,3.82 159.41,77.03 159.41,166.5 0,89.47 -70.81,162.62 -159.31,166.49 z" id="SvgjsPath1047"></path>
        <path class="cls-1" d="m 320.12,705.67 c -24.46,0 -44.31,19.85 -44.31,44.34 0,24.49 19.85,44.31 44.31,44.31 24.46,0 44.31,-19.85 44.31,-44.31 0,-24.46 -19.85,-44.34 -44.31,-44.34 z" id="SvgjsPath1046"></path>
        <circle class="cls-1" cx="612.06" cy="1081.27" r="44.32" id="SvgjsCircle1045"></circle>
      </g>
    </g>
  </g>
</svg><style>@media (prefers-color-scheme: light) { :root { filter: none; } }
@media (prefers-color-scheme: dark) { :root { filter: none; } }
</style></svg>