<svg width="267" height="267" viewBox="0 0 267 267" fill="none" xmlns="http://www.w3.org/2000/svg">
<path d="M-3.05176e-05 8.2791C-3.05176e-05 3.7067 3.58169 3.15821e-05 7.99997 3.15821e-05H115C119.418 3.15821e-05 123 3.7067 123 8.2791V258.721C123 263.293 119.418 267 115 267H7.99997C3.58169 267 -3.05176e-05 263.293 -3.05176e-05 258.721V8.2791Z" fill="#D9D9D9"/>
<path d="M144 8.27907C144 3.70667 147.582 0 152 0H259C263.418 0 267 3.70667 267 8.27907V258.721C267 263.293 263.418 267 259 267H152C147.582 267 144 263.293 144 258.721V8.27907Z" fill="#D9D9D9"/>
<path d="M158 39.3256C158 37.0393 159.791 35.186 162 35.186H247C249.209 35.186 251 37.0393 251 39.3256V52.779C251 55.0652 249.209 56.9186 247 56.9186H162C159.791 56.9186 158 55.0652 158 52.779V39.3256Z" fill="#7B7B7B"/>
<path d="M9 52.7791C9 50.4929 10.7909 48.6395 13 48.6395H111C113.209 48.6395 115 50.4929 115 52.7791C115 55.0653 113.209 56.9186 111 56.9186H13C10.7909 56.9186 9 55.0653 9 52.7791Z" fill="#7B7B7B"/>
<path d="M9 70.3721C9 68.0859 10.7909 66.2326 13 66.2326H111C113.209 66.2326 115 68.0859 115 70.3721C115 72.6583 113.209 74.5116 111 74.5116H13C10.7909 74.5116 9 72.6583 9 70.3721Z" fill="#7B7B7B"/>
<path d="M8 87.9651C8 85.6789 9.79086 83.8256 12 83.8256H110C112.209 83.8256 114 85.6789 114 87.9651C114 90.2513 112.209 92.1047 110 92.1047H12C9.79086 92.1047 8 90.2513 8 87.9651Z" fill="#7B7B7B"/>
<path d="M9 12.4186C9 10.1324 10.7909 8.27907 13 8.27907H76C78.2091 8.27907 80 10.1324 80 12.4186C80 14.7048 78.2091 16.5581 76 16.5581H13C10.7909 16.5581 9 14.7048 9 12.4186Z" fill="#7B7B7B"/>
<path d="M9 114.872C9 112.586 10.7909 110.733 13 110.733H53C55.2091 110.733 57 112.586 57 114.872V152.128C57 154.414 55.2091 156.267 53 156.267H13C10.7909 156.267 9 154.414 9 152.128V114.872Z" fill="#7B7B7B"/>
<path d="M9 169.721C9 167.435 10.7909 165.581 13 165.581H53C55.2091 165.581 57 167.435 57 169.721V206.977C57 209.263 55.2091 211.116 53 211.116H13C10.7909 211.116 9 209.263 9 206.977V169.721Z" fill="#7B7B7B"/>
<path d="M66 169.721C66 167.435 67.7909 165.581 70 165.581H110C112.209 165.581 114 167.435 114 169.721V206.977C114 209.263 112.209 211.116 110 211.116H70C67.7909 211.116 66 209.263 66 206.977V169.721Z" fill="#7B7B7B"/>
<path d="M67 114.872C67 112.586 68.7909 110.733 71 110.733H111C113.209 110.733 115 112.586 115 114.872V152.128C115 154.414 113.209 156.267 111 156.267H71C68.7909 156.267 67 154.414 67 152.128V114.872Z" fill="#7B7B7B"/>
<path d="M8 35.186C8 32.8998 9.79086 31.0465 12 31.0465H110C112.209 31.0465 114 32.8998 114 35.186C114 37.4722 112.209 39.3256 110 39.3256H12C9.79086 39.3256 8 37.4722 8 35.186Z" fill="#7B7B7B"/>
<path d="M8 35.186C8 32.8998 9.79086 31.0465 12 31.0465H110C112.209 31.0465 114 32.8998 114 35.186C114 37.4722 112.209 39.3256 110 39.3256H12C9.79086 39.3256 8 37.4722 8 35.186Z" fill="#7B7B7B"/>
<path d="M158 12.4186C158 10.1324 159.791 8.27904 162 8.27904H188C190.209 8.27904 192 10.1324 192 12.4186V21.7325C192 24.0187 190.209 25.8721 188 25.8721H162C159.791 25.8721 158 24.0187 158 21.7325V12.4186Z" fill="#7B7B7B"/>
<path d="M158 12.4186C158 10.1324 159.791 8.27904 162 8.27904H188C190.209 8.27904 192 10.1324 192 12.4186V21.7325C192 24.0187 190.209 25.8721 188 25.8721H162C159.791 25.8721 158 24.0187 158 21.7325V12.4186Z" fill="#7B7B7B"/>
<path d="M217 12.4186C217 10.1324 218.791 8.27907 221 8.27907H247C249.209 8.27907 251 10.1324 251 12.4186V21.7326C251 24.0188 249.209 25.8721 247 25.8721H221C218.791 25.8721 217 24.0188 217 21.7326V12.4186Z" fill="#7B7B7B"/>
<path d="M158 101.419C158 99.1324 159.791 97.279 162 97.279H247C249.209 97.279 251 99.1324 251 101.419V114.872C251 117.158 249.209 119.012 247 119.012H162C159.791 119.012 158 117.158 158 114.872V101.419Z" fill="#7B7B7B"/>
<path d="M194 231.814C194 229.528 195.791 227.674 198 227.674H247C249.209 227.674 251 229.528 251 231.814V245.267C251 247.554 249.209 249.407 247 249.407H198C195.791 249.407 194 247.554 194 245.267V231.814Z" fill="#7B7B7B"/>
<path d="M158 70.3721C158 68.0859 159.791 66.2325 162 66.2325H247C249.209 66.2325 251 68.0859 251 70.3721V83.8256C251 86.1118 249.209 87.9651 247 87.9651H162C159.791 87.9651 158 86.1118 158 83.8256V70.3721Z" fill="#7B7B7B"/>
</svg>
