<?xml version="1.0" encoding="UTF-8"?>
<svg xmlns="http://www.w3.org/2000/svg" xmlns:xlink="http://www.w3.org/1999/xlink" width="0" height="0">
<defs>
<symbol viewBox="0 0 24 24" fill="none" stroke="currentColor" stroke-width="2" stroke-linecap="round" stroke-linejoin="round" id="x">
  <path d="M18 6 6 18" ></path>
  <path d="m6 6 12 12" ></path>
</symbol>
<symbol viewBox="0 0 24 24" fill="none" stroke="currentColor" stroke-width="2" stroke-linecap="round" stroke-linejoin="round" id="workflow">
  <rect width="8" height="8" x="3" y="3" rx="2" ></rect>
  <path d="M7 11v4a2 2 0 0 0 2 2h4" ></path>
  <rect width="8" height="8" x="13" y="13" rx="2" ></rect>
</symbol>
<symbol viewBox="0 0 24 24" fill="none" stroke="currentColor" stroke-width="2" stroke-linecap="round" stroke-linejoin="round" id="wifi">
  <path d="M12 20h.01" ></path>
  <path d="M2 8.82a15 15 0 0 1 20 0" ></path>
  <path d="M5 12.859a10 10 0 0 1 14 0" ></path>
  <path d="M8.5 16.429a5 5 0 0 1 7 0" ></path>
</symbol>
<symbol viewBox="0 0 24 24" fill="none" stroke="currentColor" stroke-width="2" stroke-linecap="round" stroke-linejoin="round" id="wand-2">
  <path d="m21.64 3.64-1.28-1.28a1.21 1.21 0 0 0-1.72 0L2.36 18.64a1.21 1.21 0 0 0 0 1.72l1.28 1.28a1.2 1.2 0 0 0 1.72 0L21.64 5.36a1.2 1.2 0 0 0 0-1.72Z" ></path>
  <path d="m14 7 3 3" ></path>
  <path d="M5 6v4" ></path>
  <path d="M19 14v4" ></path>
  <path d="M10 2v2" ></path>
  <path d="M7 8H3" ></path>
  <path d="M21 16h-4" ></path>
  <path d="M11 3H9" ></path>
</symbol>
<symbol viewBox="0 0 24 24" fill="none" stroke="currentColor" stroke-width="2" stroke-linecap="round" stroke-linejoin="round" id="users">
  <path d="M16 21v-2a4 4 0 0 0-4-4H6a4 4 0 0 0-4 4v2" ></path>
  <circle cx="9" cy="7" r="4" ></circle>
  <path d="M22 21v-2a4 4 0 0 0-3-3.87" ></path>
  <path d="M16 3.13a4 4 0 0 1 0 7.75" ></path>
</symbol>
<symbol viewBox="0 0 24 24" fill="none" stroke="currentColor" stroke-width="2" stroke-linecap="round" stroke-linejoin="round" id="user-plus">
  <path d="M16 21v-2a4 4 0 0 0-4-4H6a4 4 0 0 0-4 4v2" ></path>
  <circle cx="9" cy="7" r="4" ></circle>
  <line x1="19" x2="19" y1="8" y2="14" ></line>
  <line x1="22" x2="16" y1="11" y2="11" ></line>
</symbol>
<symbol viewBox="0 0 15 15" fill="none" id="update">
  <path     fill-rule="evenodd"
    clip-rule="evenodd"
    d="M1.90321 7.29677C1.90321 10.341 4.11041 12.4147 6.58893 12.8439C6.87255 12.893 7.06266 13.1627 7.01355 13.4464C6.96444 13.73 6.69471 13.9201 6.41109 13.871C3.49942 13.3668 0.86084 10.9127 0.86084 7.29677C0.860839 5.76009 1.55996 4.55245 2.37639 3.63377C2.96124 2.97568 3.63034 2.44135 4.16846 2.03202L2.53205 2.03202C2.25591 2.03202 2.03205 1.80816 2.03205 1.53202C2.03205 1.25588 2.25591 1.03202 2.53205 1.03202L5.53205 1.03202C5.80819 1.03202 6.03205 1.25588 6.03205 1.53202L6.03205 4.53202C6.03205 4.80816 5.80819 5.03202 5.53205 5.03202C5.25591 5.03202 5.03205 4.80816 5.03205 4.53202L5.03205 2.68645L5.03054 2.68759L5.03045 2.68766L5.03044 2.68767L5.03043 2.68767C4.45896 3.11868 3.76059 3.64538 3.15554 4.3262C2.44102 5.13021 1.90321 6.10154 1.90321 7.29677ZM13.0109 7.70321C13.0109 4.69115 10.8505 2.6296 8.40384 2.17029C8.12093 2.11718 7.93465 1.84479 7.98776 1.56188C8.04087 1.27898 8.31326 1.0927 8.59616 1.14581C11.4704 1.68541 14.0532 4.12605 14.0532 7.70321C14.0532 9.23988 13.3541 10.4475 12.5377 11.3662C11.9528 12.0243 11.2837 12.5586 10.7456 12.968L12.3821 12.968C12.6582 12.968 12.8821 13.1918 12.8821 13.468C12.8821 13.7441 12.6582 13.968 12.3821 13.968L9.38205 13.968C9.10591 13.968 8.88205 13.7441 8.88205 13.468L8.88205 10.468C8.88205 10.1918 9.10591 9.96796 9.38205 9.96796C9.65819 9.96796 9.88205 10.1918 9.88205 10.468L9.88205 12.3135L9.88362 12.3123C10.4551 11.8813 11.1535 11.3546 11.7585 10.6738C12.4731 9.86976 13.0109 8.89844 13.0109 7.70321Z"
    fill="currentColor"
  ></path>
</symbol>
<symbol viewBox="0 0 24 24" fill="none" stroke="currentColor" stroke-width="2" stroke-linecap="round" stroke-linejoin="round" id="type">
  <polyline points="4 7 4 4 20 4 20 7" ></polyline>
  <line x1="9" x2="15" y1="20" y2="20" ></line>
  <line x1="12" x2="12" y1="4" y2="20" ></line>
</symbol>
<symbol viewBox="0 0 15 15" fill="none" id="trash">
  <path     fill-rule="evenodd"
    clip-rule="evenodd"
    d="M5.5 1C5.22386 1 5 1.22386 5 1.5C5 1.77614 5.22386 2 5.5 2H9.5C9.77614 2 10 1.77614 10 1.5C10 1.22386 9.77614 1 9.5 1H5.5ZM3 3.5C3 3.22386 3.22386 3 3.5 3H5H10H11.5C11.7761 3 12 3.22386 12 3.5C12 3.77614 11.7761 4 11.5 4H11V12C11 12.5523 10.5523 13 10 13H5C4.44772 13 4 12.5523 4 12V4L3.5 4C3.22386 4 3 3.77614 3 3.5ZM5 4H10V12H5V4Z"
    fill="currentColor"
  ></path>
</symbol>
<symbol viewBox="0 0 24 24" fill="none" stroke="currentColor" stroke-width="2" stroke-linecap="round" stroke-linejoin="round" id="toggle-right">
  <rect width="20" height="12" x="2" y="6" rx="6" ry="6" ></rect>
  <circle cx="16" cy="12" r="2" ></circle>
</symbol>
<symbol viewBox="0 0 24 24" fill="none" stroke="currentColor" stroke-width="2" stroke-linecap="round" stroke-linejoin="round" id="ticket">
  <path d="M2 9a3 3 0 0 1 0 6v2a2 2 0 0 0 2 2h16a2 2 0 0 0 2-2v-2a3 3 0 0 1 0-6V7a2 2 0 0 0-2-2H4a2 2 0 0 0-2 2Z" ></path>
  <path d="M13 5v2" ></path>
  <path d="M13 17v2" ></path>
  <path d="M13 11v2" ></path>
</symbol>
<symbol viewBox="0 0 24 24" fill="none" stroke="currentColor" stroke-width="2" stroke-linecap="round" stroke-linejoin="round" id="text-cursor-input">
  <path d="M5 4h1a3 3 0 0 1 3 3 3 3 0 0 1 3-3h1" ></path>
  <path d="M13 20h-1a3 3 0 0 1-3-3 3 3 0 0 1-3 3H5" ></path>
  <path d="M5 16H4a2 2 0 0 1-2-2v-4a2 2 0 0 1 2-2h1" ></path>
  <path d="M13 8h7a2 2 0 0 1 2 2v4a2 2 0 0 1-2 2h-7" ></path>
  <path d="M9 7v10" ></path>
</symbol>
<symbol viewBox="0 0 24 24" fill="none" stroke="currentColor" stroke-width="2" stroke-linecap="round" stroke-linejoin="round" id="tally-5">
  <path d="M4 4v16" ></path>
  <path d="M9 4v16" ></path>
  <path d="M14 4v16" ></path>
  <path d="M19 4v16" ></path>
  <path d="M22 6 2 18" ></path>
</symbol>
<symbol viewBox="0 0 15 15" fill="none" id="sun">
  <path     fill-rule="evenodd"
    clip-rule="evenodd"
    d="M7.5 0C7.77614 0 8 0.223858 8 0.5V2.5C8 2.77614 7.77614 3 7.5 3C7.22386 3 7 2.77614 7 2.5V0.5C7 0.223858 7.22386 0 7.5 0ZM2.1967 2.1967C2.39196 2.00144 2.70854 2.00144 2.90381 2.1967L4.31802 3.61091C4.51328 3.80617 4.51328 4.12276 4.31802 4.31802C4.12276 4.51328 3.80617 4.51328 3.61091 4.31802L2.1967 2.90381C2.00144 2.70854 2.00144 2.39196 2.1967 2.1967ZM0.5 7C0.223858 7 0 7.22386 0 7.5C0 7.77614 0.223858 8 0.5 8H2.5C2.77614 8 3 7.77614 3 7.5C3 7.22386 2.77614 7 2.5 7H0.5ZM2.1967 12.8033C2.00144 12.608 2.00144 12.2915 2.1967 12.0962L3.61091 10.682C3.80617 10.4867 4.12276 10.4867 4.31802 10.682C4.51328 10.8772 4.51328 11.1938 4.31802 11.3891L2.90381 12.8033C2.70854 12.9986 2.39196 12.9986 2.1967 12.8033ZM12.5 7C12.2239 7 12 7.22386 12 7.5C12 7.77614 12.2239 8 12.5 8H14.5C14.7761 8 15 7.77614 15 7.5C15 7.22386 14.7761 7 14.5 7H12.5ZM10.682 4.31802C10.4867 4.12276 10.4867 3.80617 10.682 3.61091L12.0962 2.1967C12.2915 2.00144 12.608 2.00144 12.8033 2.1967C12.9986 2.39196 12.9986 2.70854 12.8033 2.90381L11.3891 4.31802C11.1938 4.51328 10.8772 4.51328 10.682 4.31802ZM8 12.5C8 12.2239 7.77614 12 7.5 12C7.22386 12 7 12.2239 7 12.5V14.5C7 14.7761 7.22386 15 7.5 15C7.77614 15 8 14.7761 8 14.5V12.5ZM10.682 10.682C10.8772 10.4867 11.1938 10.4867 11.3891 10.682L12.8033 12.0962C12.9986 12.2915 12.9986 12.608 12.8033 12.8033C12.608 12.9986 12.2915 12.9986 12.0962 12.8033L10.682 11.3891C10.4867 11.1938 10.4867 10.8772 10.682 10.682ZM5.5 7.5C5.5 6.39543 6.39543 5.5 7.5 5.5C8.60457 5.5 9.5 6.39543 9.5 7.5C9.5 8.60457 8.60457 9.5 7.5 9.5C6.39543 9.5 5.5 8.60457 5.5 7.5ZM7.5 4.5C5.84315 4.5 4.5 5.84315 4.5 7.5C4.5 9.15685 5.84315 10.5 7.5 10.5C9.15685 10.5 10.5 9.15685 10.5 7.5C10.5 5.84315 9.15685 4.5 7.5 4.5Z"
    fill="currentColor"
  ></path>
</symbol>
<symbol viewBox="0 0 24 24" fill="none" stroke="currentColor" stroke-width="2" stroke-linecap="round" stroke-linejoin="round" id="stethoscope">
  <path d="M11 2v2" ></path>
  <path d="M5 2v2" ></path>
  <path d="M5 3H4a2 2 0 0 0-2 2v4a6 6 0 0 0 12 0V5a2 2 0 0 0-2-2h-1" ></path>
  <path d="M8 15a6 6 0 0 0 12 0v-3" ></path>
  <circle cx="20" cy="10" r="2" ></circle>
</symbol>
<symbol viewBox="0 0 24 24" fill="none" stroke="currentColor" stroke-width="2" stroke-linecap="round" stroke-linejoin="round" id="star">
  <polygon points="12 2 15.09 8.26 22 9.27 17 14.14 18.18 21.02 12 17.77 5.82 21.02 7 14.14 2 9.27 8.91 8.26 12 2" ></polygon>
</symbol>
<symbol viewBox="0 0 24 24" fill="none" stroke="currentColor" stroke-width="2" stroke-linecap="round" stroke-linejoin="round" id="star-off">
  <path d="M8.34 8.34 2 9.27l5 4.87L5.82 21 12 17.77 18.18 21l-.59-3.43" ></path>
  <path d="M18.42 12.76 22 9.27l-6.91-1L12 2l-1.44 2.91" ></path>
  <line x1="2" x2="22" y1="2" y2="22" ></line>
</symbol>
<symbol viewBox="0 0 24 24" fill="none" stroke="currentColor" stroke-width="2" stroke-linecap="round" stroke-linejoin="round" id="square-user-round">
  <path d="M18 21a6 6 0 0 0-12 0" ></path>
  <circle cx="12" cy="11" r="4" ></circle>
  <rect width="18" height="18" x="3" y="3" rx="2" ></rect>
</symbol>
<symbol viewBox="0 0 24 24" fill="none" stroke="currentColor" stroke-width="2" stroke-linecap="round" stroke-linejoin="round" id="square-kanban">
  <rect width="18" height="18" x="3" y="3" rx="2" ></rect>
  <path d="M8 7v7" ></path>
  <path d="M12 7v4" ></path>
  <path d="M16 7v9" ></path>
</symbol>
<symbol viewBox="0 0 24 24" fill="none" stroke="currentColor" stroke-width="2" stroke-linecap="round" stroke-linejoin="round" id="sliders-horizontal">
  <line x1="21" x2="14" y1="4" y2="4" ></line>
  <line x1="10" x2="3" y1="4" y2="4" ></line>
  <line x1="21" x2="12" y1="12" y2="12" ></line>
  <line x1="8" x2="3" y1="12" y2="12" ></line>
  <line x1="21" x2="16" y1="20" y2="20" ></line>
  <line x1="12" x2="3" y1="20" y2="20" ></line>
  <line x1="14" x2="14" y1="2" y2="6" ></line>
  <line x1="8" x2="8" y1="10" y2="14" ></line>
  <line x1="16" x2="16" y1="18" y2="22" ></line>
</symbol>
<symbol viewBox="0 0 24 24" id="share"><path fill="none" stroke="currentColor" stroke-linecap="round" stroke-linejoin="round" stroke-width="2" d="M4 12v8a2 2 0 0 0 2 2h12a2 2 0 0 0 2-2v-8m-4-6l-4-4l-4 4m4-4v13"></path></symbol>
<symbol viewBox="0 0 24 24" fill="none" stroke="currentColor" stroke-width="2" stroke-linecap="round" stroke-linejoin="round" id="search">
  <circle cx="11" cy="11" r="8" ></circle>
  <path d="m21 21-4.3-4.3" ></path>
</symbol>
<symbol viewBox="0 0 24 24" fill="none" stroke="currentColor" stroke-width="2" stroke-linecap="round" stroke-linejoin="round" id="rocket">
  <path d="M4.5 16.5c-1.5 1.26-2 5-2 5s3.74-.5 5-2c.71-.84.7-2.13-.09-2.91a2.18 2.18 0 0 0-2.91-.09z" ></path>
  <path d="m12 15-3-3a22 22 0 0 1 2-3.95A12.88 12.88 0 0 1 22 2c0 2.72-.78 7.5-6 11a22.35 22.35 0 0 1-4 2z" ></path>
  <path d="M9 12H4s.55-3.03 2-4c1.62-1.08 5 0 5 0" ></path>
  <path d="M12 15v5s3.03-.55 4-2c1.08-1.62 0-5 0-5" ></path>
</symbol>
<symbol viewBox="0 0 15 15" fill="none" id="reset">
  <path     fill-rule="evenodd"
    clip-rule="evenodd"
    d="M4.85355 2.14645C5.04882 2.34171 5.04882 2.65829 4.85355 2.85355L3.70711 4H9C11.4853 4 13.5 6.01472 13.5 8.5C13.5 10.9853 11.4853 13 9 13H5C4.72386 13 4.5 12.7761 4.5 12.5C4.5 12.2239 4.72386 12 5 12H9C10.933 12 12.5 10.433 12.5 8.5C12.5 6.567 10.933 5 9 5H3.70711L4.85355 6.14645C5.04882 6.34171 5.04882 6.65829 4.85355 6.85355C4.65829 7.04882 4.34171 7.04882 4.14645 6.85355L2.14645 4.85355C1.95118 4.65829 1.95118 4.34171 2.14645 4.14645L4.14645 2.14645C4.34171 1.95118 4.65829 1.95118 4.85355 2.14645Z"
    fill="currentColor"
  ></path>
</symbol>
<symbol viewBox="0 0 15 15" fill="none" id="question-mark-circled">
  <path     fill-rule="evenodd"
    clip-rule="evenodd"
    d="M0.877075 7.49972C0.877075 3.84204 3.84222 0.876892 7.49991 0.876892C11.1576 0.876892 14.1227 3.84204 14.1227 7.49972C14.1227 11.1574 11.1576 14.1226 7.49991 14.1226C3.84222 14.1226 0.877075 11.1574 0.877075 7.49972ZM7.49991 1.82689C4.36689 1.82689 1.82708 4.36671 1.82708 7.49972C1.82708 10.6327 4.36689 13.1726 7.49991 13.1726C10.6329 13.1726 13.1727 10.6327 13.1727 7.49972C13.1727 4.36671 10.6329 1.82689 7.49991 1.82689ZM8.24993 10.5C8.24993 10.9142 7.91414 11.25 7.49993 11.25C7.08571 11.25 6.74993 10.9142 6.74993 10.5C6.74993 10.0858 7.08571 9.75 7.49993 9.75C7.91414 9.75 8.24993 10.0858 8.24993 10.5ZM6.05003 6.25C6.05003 5.57211 6.63511 4.925 7.50003 4.925C8.36496 4.925 8.95003 5.57211 8.95003 6.25C8.95003 6.74118 8.68002 6.99212 8.21447 7.27494C8.16251 7.30651 8.10258 7.34131 8.03847 7.37854L8.03841 7.37858C7.85521 7.48497 7.63788 7.61119 7.47449 7.73849C7.23214 7.92732 6.95003 8.23198 6.95003 8.7C6.95004 9.00376 7.19628 9.25 7.50004 9.25C7.8024 9.25 8.04778 9.00601 8.05002 8.70417L8.05056 8.7033C8.05924 8.6896 8.08493 8.65735 8.15058 8.6062C8.25207 8.52712 8.36508 8.46163 8.51567 8.37436L8.51571 8.37433C8.59422 8.32883 8.68296 8.27741 8.78559 8.21506C9.32004 7.89038 10.05 7.35382 10.05 6.25C10.05 4.92789 8.93511 3.825 7.50003 3.825C6.06496 3.825 4.95003 4.92789 4.95003 6.25C4.95003 6.55376 5.19628 6.8 5.50003 6.8C5.80379 6.8 6.05003 6.55376 6.05003 6.25Z"
    fill="currentColor"
  ></path>
</symbol>
<symbol viewBox="0 0 24 24" fill="none" stroke="currentColor" stroke-width="2" stroke-linecap="round" stroke-linejoin="round" id="presentation">
  <path d="M2 3h20" ></path>
  <path d="M21 3v11a2 2 0 0 1-2 2H5a2 2 0 0 1-2-2V3" ></path>
  <path d="m7 21 5-5 5 5" ></path>
</symbol>
<symbol viewBox="0 0 15 15" fill="none" id="plus">
  <path     fill-rule="evenodd"
    clip-rule="evenodd"
    d="M8 2.75C8 2.47386 7.77614 2.25 7.5 2.25C7.22386 2.25 7 2.47386 7 2.75V7H2.75C2.47386 7 2.25 7.22386 2.25 7.5C2.25 7.77614 2.47386 8 2.75 8H7V12.25C7 12.5261 7.22386 12.75 7.5 12.75C7.77614 12.75 8 12.5261 8 12.25V8H12.25C12.5261 8 12.75 7.77614 12.75 7.5C12.75 7.22386 12.5261 7 12.25 7H8V2.75Z"
    fill="currentColor"
  ></path>
</symbol>
<symbol viewBox="0 0 14 14" fill="none" id="plug">
<path d="M13.8535 3.14628C13.8071 3.0998 13.752 3.06292 13.6913 3.03775C13.6306 3.01259 13.5655 2.99964 13.4998 2.99964C13.4341 2.99964 13.369 3.01259 13.3083 3.03775C13.2476 3.06292 13.1925 3.0998 13.146 3.14628L10.9998 5.29316L8.70667 3.00003L10.8535 0.853784C10.9474 0.759964 11.0001 0.632716 11.0001 0.500034C11.0001 0.367352 10.9474 0.240104 10.8535 0.146284C10.7597 0.0524636 10.6325 -0.000244141 10.4998 -0.000244141C10.3671 -0.000244141 10.2399 0.0524636 10.146 0.146284L7.99979 2.29316L6.35354 0.646284C6.25972 0.552464 6.13247 0.499756 5.99979 0.499756C5.86711 0.499756 5.73986 0.552464 5.64604 0.646284C5.55222 0.740104 5.49951 0.867352 5.49951 1.00003C5.49951 1.13272 5.55222 1.25996 5.64604 1.35378L6.04291 1.75003L2.73041 5.06253C2.49825 5.29468 2.31409 5.57029 2.18845 5.87361C2.0628 6.17693 1.99814 6.50203 1.99814 6.83035C1.99814 7.15866 2.0628 7.48376 2.18845 7.78709C2.31409 8.09041 2.49825 8.36601 2.73041 8.59816L3.71229 9.58003L0.64604 12.6463C0.599585 12.6927 0.562734 12.7479 0.537593 12.8086C0.512452 12.8693 0.499512 12.9343 0.499512 13C0.499512 13.0657 0.512452 13.1308 0.537593 13.1915C0.562734 13.2522 0.599585 13.3073 0.64604 13.3538C0.73986 13.4476 0.867108 13.5003 0.99979 13.5003C1.06549 13.5003 1.13054 13.4874 1.19124 13.4622C1.25193 13.4371 1.30708 13.4002 1.35354 13.3538L4.42166 10.2857L5.40354 11.2675C5.63569 11.4997 5.91129 11.6839 6.21461 11.8095C6.51794 11.9351 6.84304 11.9998 7.17135 11.9998C7.49967 11.9998 7.82477 11.9351 8.12809 11.8095C8.43141 11.6839 8.70702 11.4997 8.93917 11.2675L12.2517 7.95503L12.6479 8.35191C12.6944 8.39837 12.7495 8.43521 12.8102 8.46036C12.8709 8.4855 12.936 8.49844 13.0017 8.49844C13.0674 8.49844 13.1324 8.4855 13.1931 8.46036C13.2538 8.43521 13.309 8.39837 13.3554 8.35191C13.4019 8.30545 13.4387 8.2503 13.4639 8.18961C13.489 8.12891 13.5019 8.06386 13.5019 7.99816C13.5019 7.93246 13.489 7.86741 13.4639 7.80671C13.4387 7.74601 13.4019 7.69086 13.3554 7.64441L11.7067 6.00003L13.8535 3.85378C13.9 3.80735 13.9369 3.7522 13.9621 3.6915C13.9872 3.63081 14.0002 3.56574 14.0002 3.50003C14.0002 3.43433 13.9872 3.36926 13.9621 3.30856C13.9369 3.24786 13.9 3.19272 13.8535 3.14628ZM8.23229 10.5625C8.09299 10.7019 7.9276 10.8125 7.74556 10.8879C7.56352 10.9633 7.3684 11.0022 7.17135 11.0022C6.9743 11.0022 6.77919 10.9633 6.59715 10.8879C6.41511 10.8125 6.24971 10.7019 6.11041 10.5625L3.43729 7.88941C3.29792 7.75011 3.18736 7.58472 3.11193 7.40268C3.0365 7.22064 2.99767 7.02552 2.99767 6.82847C2.99767 6.63142 3.0365 6.4363 3.11193 6.25426C3.18736 6.07223 3.29792 5.90683 3.43729 5.76753L6.74979 2.45503L11.5429 7.25003L8.23229 10.5625Z" fill="white"></path>
</symbol>
<symbol viewBox="0 0 24 24" fill="none" stroke="currentColor" stroke-width="2" stroke-linecap="round" stroke-linejoin="round" id="pencil">
  <path d="M21.174 6.812a1 1 0 0 0-3.986-3.987L3.842 16.174a2 2 0 0 0-.5.83l-1.321 4.352a.5.5 0 0 0 .623.622l4.353-1.32a2 2 0 0 0 .83-.497z" ></path>
  <path d="m15 5 4 4" ></path>
</symbol>
<symbol viewBox="0 0 15 15" fill="none" id="pencil-2">
  <path     fill-rule="evenodd"
    clip-rule="evenodd"
    d="M12.1464 1.14645C12.3417 0.951184 12.6583 0.951184 12.8535 1.14645L14.8535 3.14645C15.0488 3.34171 15.0488 3.65829 14.8535 3.85355L10.9109 7.79618C10.8349 7.87218 10.7471 7.93543 10.651 7.9835L6.72359 9.94721C6.53109 10.0435 6.29861 10.0057 6.14643 9.85355C5.99425 9.70137 5.95652 9.46889 6.05277 9.27639L8.01648 5.34897C8.06455 5.25283 8.1278 5.16507 8.2038 5.08907L12.1464 1.14645ZM12.5 2.20711L8.91091 5.79618L7.87266 7.87267L8.12731 8.12732L10.2038 7.08907L13.7929 3.5L12.5 2.20711ZM9.99998 2L8.99998 3H4.9C4.47171 3 4.18056 3.00039 3.95552 3.01877C3.73631 3.03668 3.62421 3.06915 3.54601 3.10899C3.35785 3.20487 3.20487 3.35785 3.10899 3.54601C3.06915 3.62421 3.03669 3.73631 3.01878 3.95552C3.00039 4.18056 3 4.47171 3 4.9V11.1C3 11.5283 3.00039 11.8194 3.01878 12.0445C3.03669 12.2637 3.06915 12.3758 3.10899 12.454C3.20487 12.6422 3.35785 12.7951 3.54601 12.891C3.62421 12.9309 3.73631 12.9633 3.95552 12.9812C4.18056 12.9996 4.47171 13 4.9 13H11.1C11.5283 13 11.8194 12.9996 12.0445 12.9812C12.2637 12.9633 12.3758 12.9309 12.454 12.891C12.6422 12.7951 12.7951 12.6422 12.891 12.454C12.9309 12.3758 12.9633 12.2637 12.9812 12.0445C12.9996 11.8194 13 11.5283 13 11.1V6.99998L14 5.99998V11.1V11.1207C14 11.5231 14 11.8553 13.9779 12.1259C13.9549 12.407 13.9057 12.6653 13.782 12.908C13.5903 13.2843 13.2843 13.5903 12.908 13.782C12.6653 13.9057 12.407 13.9549 12.1259 13.9779C11.8553 14 11.5231 14 11.1207 14H11.1H4.9H4.87934C4.47686 14 4.14468 14 3.87409 13.9779C3.59304 13.9549 3.33469 13.9057 3.09202 13.782C2.7157 13.5903 2.40973 13.2843 2.21799 12.908C2.09434 12.6653 2.04506 12.407 2.0221 12.1259C1.99999 11.8553 1.99999 11.5231 2 11.1207V11.1206V11.1V4.9V4.87935V4.87932V4.87931C1.99999 4.47685 1.99999 4.14468 2.0221 3.87409C2.04506 3.59304 2.09434 3.33469 2.21799 3.09202C2.40973 2.71569 2.7157 2.40973 3.09202 2.21799C3.33469 2.09434 3.59304 2.04506 3.87409 2.0221C4.14468 1.99999 4.47685 1.99999 4.87932 2H4.87935H4.9H9.99998Z"
    fill="currentColor"
  ></path>
</symbol>
<symbol viewBox="0 0 15 15" fill="none" id="pencil-1">
  <path     fill-rule="evenodd"
    clip-rule="evenodd"
    d="M11.8536 1.14645C11.6583 0.951184 11.3417 0.951184 11.1465 1.14645L3.71455 8.57836C3.62459 8.66832 3.55263 8.77461 3.50251 8.89155L2.04044 12.303C1.9599 12.491 2.00189 12.709 2.14646 12.8536C2.29103 12.9981 2.50905 13.0401 2.69697 12.9596L6.10847 11.4975C6.2254 11.4474 6.3317 11.3754 6.42166 11.2855L13.8536 3.85355C14.0488 3.65829 14.0488 3.34171 13.8536 3.14645L11.8536 1.14645ZM4.42166 9.28547L11.5 2.20711L12.7929 3.5L5.71455 10.5784L4.21924 11.2192L3.78081 10.7808L4.42166 9.28547Z"
    fill="currentColor"
  ></path>
</symbol>
<symbol viewBox="0 0 24 24" fill="none" stroke="currentColor" stroke-width="2" stroke-linecap="round" stroke-linejoin="round" id="panels-top-left">
  <rect width="18" height="18" x="3" y="3" rx="2" ></rect>
  <path d="M3 9h18" ></path>
  <path d="M9 21V9" ></path>
</symbol>
<symbol viewBox="0 0 24 24" fill="none" stroke="currentColor" stroke-width="2" stroke-linecap="round" stroke-linejoin="round" id="panel-left">
  <rect width="18" height="18" x="3" y="3" rx="2" ></rect>
  <path d="M9 3v18" ></path>
</symbol>
<symbol viewBox="0 0 24 24" fill="none" stroke="currentColor" stroke-width="2" stroke-linecap="round" stroke-linejoin="round" id="palette">
  <circle cx="13.5" cy="6.5" r=".5" fill="currentColor" ></circle>
  <circle cx="17.5" cy="10.5" r=".5" fill="currentColor" ></circle>
  <circle cx="8.5" cy="7.5" r=".5" fill="currentColor" ></circle>
  <circle cx="6.5" cy="12.5" r=".5" fill="currentColor" ></circle>
  <path d="M12 2C6.5 2 2 6.5 2 12s4.5 10 10 10c.926 0 1.648-.746 1.648-1.688 0-.437-.18-.835-.437-1.125-.29-.289-.438-.652-.438-1.125a1.64 1.64 0 0 1 1.668-1.668h1.996c3.051 0 5.555-2.503 5.555-5.554C21.965 6.012 17.461 2 12 2z" ></path>
</symbol>
<symbol viewBox="0 0 24 24" fill="none" stroke="currentColor" stroke-width="2" stroke-linecap="round" stroke-linejoin="round" id="newspaper">
  <path d="M4 22h16a2 2 0 0 0 2-2V4a2 2 0 0 0-2-2H8a2 2 0 0 0-2 2v16a2 2 0 0 1-2 2Zm0 0a2 2 0 0 1-2-2v-9c0-1.1.9-2 2-2h2" ></path>
  <path d="M18 14h-8" ></path>
  <path d="M15 18h-5" ></path>
  <path d="M10 6h8v4h-8V6Z" ></path>
</symbol>
<symbol viewBox="0 0 24 24" fill="none" stroke="currentColor" stroke-width="2" stroke-linecap="round" stroke-linejoin="round" id="mouse-pointer-click">
  <path d="M14 4.1 12 6" ></path>
  <path d="m5.1 8-2.9-.8" ></path>
  <path d="m6 12-1.9 2" ></path>
  <path d="M7.2 2.2 8 5.1" ></path>
  <path d="M9.037 9.69a.498.498 0 0 1 .653-.653l11 4.5a.5.5 0 0 1-.074.949l-4.349 1.041a1 1 0 0 0-.74.739l-1.04 4.35a.5.5 0 0 1-.95.074z" ></path>
</symbol>
<symbol viewBox="0 0 15 15" fill="none" id="moon">
  <path     fill-rule="evenodd"
    clip-rule="evenodd"
    d="M2.89998 0.499976C2.89998 0.279062 2.72089 0.0999756 2.49998 0.0999756C2.27906 0.0999756 2.09998 0.279062 2.09998 0.499976V1.09998H1.49998C1.27906 1.09998 1.09998 1.27906 1.09998 1.49998C1.09998 1.72089 1.27906 1.89998 1.49998 1.89998H2.09998V2.49998C2.09998 2.72089 2.27906 2.89998 2.49998 2.89998C2.72089 2.89998 2.89998 2.72089 2.89998 2.49998V1.89998H3.49998C3.72089 1.89998 3.89998 1.72089 3.89998 1.49998C3.89998 1.27906 3.72089 1.09998 3.49998 1.09998H2.89998V0.499976ZM5.89998 3.49998C5.89998 3.27906 5.72089 3.09998 5.49998 3.09998C5.27906 3.09998 5.09998 3.27906 5.09998 3.49998V4.09998H4.49998C4.27906 4.09998 4.09998 4.27906 4.09998 4.49998C4.09998 4.72089 4.27906 4.89998 4.49998 4.89998H5.09998V5.49998C5.09998 5.72089 5.27906 5.89998 5.49998 5.89998C5.72089 5.89998 5.89998 5.72089 5.89998 5.49998V4.89998H6.49998C6.72089 4.89998 6.89998 4.72089 6.89998 4.49998C6.89998 4.27906 6.72089 4.09998 6.49998 4.09998H5.89998V3.49998ZM1.89998 6.49998C1.89998 6.27906 1.72089 6.09998 1.49998 6.09998C1.27906 6.09998 1.09998 6.27906 1.09998 6.49998V7.09998H0.499976C0.279062 7.09998 0.0999756 7.27906 0.0999756 7.49998C0.0999756 7.72089 0.279062 7.89998 0.499976 7.89998H1.09998V8.49998C1.09998 8.72089 1.27906 8.89997 1.49998 8.89997C1.72089 8.89997 1.89998 8.72089 1.89998 8.49998V7.89998H2.49998C2.72089 7.89998 2.89998 7.72089 2.89998 7.49998C2.89998 7.27906 2.72089 7.09998 2.49998 7.09998H1.89998V6.49998ZM8.54406 0.98184L8.24618 0.941586C8.03275 0.917676 7.90692 1.1655 8.02936 1.34194C8.17013 1.54479 8.29981 1.75592 8.41754 1.97445C8.91878 2.90485 9.20322 3.96932 9.20322 5.10022C9.20322 8.37201 6.82247 11.0878 3.69887 11.6097C3.45736 11.65 3.20988 11.6772 2.96008 11.6906C2.74563 11.702 2.62729 11.9535 2.77721 12.1072C2.84551 12.1773 2.91535 12.2458 2.98667 12.3128L3.05883 12.3795L3.31883 12.6045L3.50684 12.7532L3.62796 12.8433L3.81491 12.9742L3.99079 13.089C4.11175 13.1651 4.23536 13.2375 4.36157 13.3059L4.62496 13.4412L4.88553 13.5607L5.18837 13.6828L5.43169 13.7686C5.56564 13.8128 5.70149 13.8529 5.83857 13.8885C5.94262 13.9155 6.04767 13.9401 6.15405 13.9622C6.27993 13.9883 6.40713 14.0109 6.53544 14.0298L6.85241 14.0685L7.11934 14.0892C7.24637 14.0965 7.37436 14.1002 7.50322 14.1002C11.1483 14.1002 14.1032 11.1453 14.1032 7.50023C14.1032 7.25044 14.0893 7.00389 14.0623 6.76131L14.0255 6.48407C13.991 6.26083 13.9453 6.04129 13.8891 5.82642C13.8213 5.56709 13.7382 5.31398 13.6409 5.06881L13.5279 4.80132L13.4507 4.63542L13.3766 4.48666C13.2178 4.17773 13.0353 3.88295 12.8312 3.60423L12.6782 3.40352L12.4793 3.16432L12.3157 2.98361L12.1961 2.85951L12.0355 2.70246L11.8134 2.50184L11.4925 2.24191L11.2483 2.06498L10.9562 1.87446L10.6346 1.68894L10.3073 1.52378L10.1938 1.47176L9.95488 1.3706L9.67791 1.2669L9.42566 1.1846L9.10075 1.09489L8.83599 1.03486L8.54406 0.98184ZM10.4032 5.30023C10.4032 4.27588 10.2002 3.29829 9.83244 2.40604C11.7623 3.28995 13.1032 5.23862 13.1032 7.50023C13.1032 10.593 10.596 13.1002 7.50322 13.1002C6.63646 13.1002 5.81597 12.9036 5.08355 12.5522C6.5419 12.0941 7.81081 11.2082 8.74322 10.0416C8.87963 10.2284 9.10028 10.3497 9.34928 10.3497C9.76349 10.3497 10.0993 10.0139 10.0993 9.59971C10.0993 9.24256 9.84965 8.94373 9.51535 8.86816C9.57741 8.75165 9.63653 8.63334 9.6926 8.51332C9.88358 8.63163 10.1088 8.69993 10.35 8.69993C11.0403 8.69993 11.6 8.14028 11.6 7.44993C11.6 6.75976 11.0406 6.20024 10.3505 6.19993C10.3853 5.90487 10.4032 5.60464 10.4032 5.30023Z"
    fill="currentColor"
  ></path>
</symbol>
<symbol viewBox="0 0 24 24" fill="none" stroke="currentColor" stroke-width="2" stroke-linecap="round" stroke-linejoin="round" id="message-square-text">
  <path d="M21 15a2 2 0 0 1-2 2H7l-4 4V5a2 2 0 0 1 2-2h14a2 2 0 0 1 2 2z" ></path>
  <path d="M13 8H7" ></path>
  <path d="M17 12H7" ></path>
</symbol>
<symbol viewBox="0 0 24 24" fill="none" stroke="currentColor" stroke-width="2" stroke-linecap="round" stroke-linejoin="round" id="message-circle-heart">
  <path d="M7.9 20A9 9 0 1 0 4 16.1L2 22Z" ></path>
  <path d="M15.8 9.2a2.5 2.5 0 0 0-3.5 0l-.3.4-.35-.3a2.42 2.42 0 1 0-3.2 3.6l3.6 3.5 3.6-3.5c1.2-1.2 1.1-2.7.2-3.7" ></path>
</symbol>
<symbol viewBox="0 0 24 24" fill="none" stroke="currentColor" stroke-width="2" stroke-linecap="round" stroke-linejoin="round" id="menu">
  <line x1="4" x2="20" y1="12" y2="12" ></line>
  <line x1="4" x2="20" y1="6" y2="6" ></line>
  <line x1="4" x2="20" y1="18" y2="18" ></line>
</symbol>
<symbol viewBox="0 0 15 15" fill="none" id="magnifying-glass">
  <path     fill-rule="evenodd"
    clip-rule="evenodd"
    d="M10 6.5C10 8.433 8.433 10 6.5 10C4.567 10 3 8.433 3 6.5C3 4.567 4.567 3 6.5 3C8.433 3 10 4.567 10 6.5ZM9.30884 10.0159C8.53901 10.6318 7.56251 11 6.5 11C4.01472 11 2 8.98528 2 6.5C2 4.01472 4.01472 2 6.5 2C8.98528 2 11 4.01472 11 6.5C11 7.56251 10.6318 8.53901 10.0159 9.30884L12.8536 12.1464C13.0488 12.3417 13.0488 12.6583 12.8536 12.8536C12.6583 13.0488 12.3417 13.0488 12.1464 12.8536L9.30884 10.0159Z"
    fill="currentColor"
  ></path>
</symbol>
<symbol viewBox="0 0 24 24" fill="none" stroke="currentColor" stroke-width="2" stroke-linecap="round" stroke-linejoin="round" id="log-out">
  <path d="M9 21H5a2 2 0 0 1-2-2V5a2 2 0 0 1 2-2h4" ></path>
  <polyline points="16 17 21 12 16 7" ></polyline>
  <line x1="21" x2="9" y1="12" y2="12" ></line>
</symbol>
<symbol viewBox="0 0 24 24" fill="none" stroke="currentColor" stroke-width="2" stroke-linecap="round" stroke-linejoin="round" id="log-in">
  <path d="M15 3h4a2 2 0 0 1 2 2v14a2 2 0 0 1-2 2h-4" ></path>
  <polyline points="10 17 15 12 10 7" ></polyline>
  <line x1="15" x2="3" y1="12" y2="12" ></line>
</symbol>
<symbol viewBox="0 0 15 15" fill="none" id="lock-open-1">
  <path     fill-rule="evenodd"
    clip-rule="evenodd"
    d="M7.4986 0C6.3257 0 5.36107 0.38943 4.73753 1.19361C4.23745 1.83856 4 2.68242 4 3.63325H5C5 2.84313 5.19691 2.23312 5.5278 1.80636C5.91615 1.30552 6.55152 1 7.4986 1C8.35683 1 8.96336 1.26502 9.35846 1.68623C9.75793 2.11211 10 2.76044 10 3.63601V6H3C2.44772 6 2 6.44772 2 7V13C2 13.5523 2.44772 14 3 14H12C12.5523 14 13 13.5523 13 13V7C13 6.44771 12.5523 6 12 6H11V3.63601C11 2.58135 10.7065 1.66167 10.0878 1.0021C9.46477 0.337871 8.57061 0 7.4986 0ZM3 7H12V13H3V7Z"
    fill="currentColor"
  ></path>
</symbol>
<symbol viewBox="0 0 15 15" fill="none" id="lock-closed">
  <path     fill-rule="evenodd"
    clip-rule="evenodd"
    d="M5 4.63601C5 3.76031 5.24219 3.1054 5.64323 2.67357C6.03934 2.24705 6.64582 1.9783 7.5014 1.9783C8.35745 1.9783 8.96306 2.24652 9.35823 2.67208C9.75838 3.10299 10 3.75708 10 4.63325V5.99999H5V4.63601ZM4 5.99999V4.63601C4 3.58148 4.29339 2.65754 4.91049 1.99307C5.53252 1.32329 6.42675 0.978302 7.5014 0.978302C8.57583 0.978302 9.46952 1.32233 10.091 1.99162C10.7076 2.65557 11 3.57896 11 4.63325V5.99999H12C12.5523 5.99999 13 6.44771 13 6.99999V13C13 13.5523 12.5523 14 12 14H3C2.44772 14 2 13.5523 2 13V6.99999C2 6.44771 2.44772 5.99999 3 5.99999H4ZM3 6.99999H12V13H3V6.99999Z"
    fill="currentColor"
  ></path>
</symbol>
<symbol viewBox="0 0 24 24" fill="none" stroke="currentColor" stroke-width="2" stroke-linecap="round" stroke-linejoin="round" id="loader">
  <path d="M12 2v4" ></path>
  <path d="m16.2 7.8 2.9-2.9" ></path>
  <path d="M18 12h4" ></path>
  <path d="m16.2 16.2 2.9 2.9" ></path>
  <path d="M12 18v4" ></path>
  <path d="m4.9 19.1 2.9-2.9" ></path>
  <path d="M2 12h4" ></path>
  <path d="m4.9 4.9 2.9 2.9" ></path>
</symbol>
<symbol viewBox="0 0 24 24" fill="none" stroke="currentColor" stroke-width="2" stroke-linecap="round" stroke-linejoin="round" id="list-checks">
  <path d="m3 17 2 2 4-4" ></path>
  <path d="m3 7 2 2 4-4" ></path>
  <path d="M13 6h8" ></path>
  <path d="M13 12h8" ></path>
  <path d="M13 18h8" ></path>
</symbol>
<symbol viewBox="0 0 24 24" fill="none" stroke="currentColor" stroke-width="2" stroke-linecap="round" stroke-linejoin="round" id="list-check">
  <path d="M11 18H3" ></path>
  <path d="m15 18 2 2 4-4" ></path>
  <path d="M16 12H3" ></path>
  <path d="M16 6H3" ></path>
</symbol>
<symbol viewBox="0 0 15 15" fill="none" id="link-2">
  <path     fill-rule="evenodd"
    clip-rule="evenodd"
    d="M8.51194 3.00541C9.18829 2.54594 10.0435 2.53694 10.6788 2.95419C10.8231 3.04893 10.9771 3.1993 11.389 3.61119C11.8009 4.02307 11.9513 4.17714 12.046 4.32141C12.4633 4.95675 12.4543 5.81192 11.9948 6.48827C11.8899 6.64264 11.7276 6.80811 11.3006 7.23511L10.6819 7.85383C10.4867 8.04909 10.4867 8.36567 10.6819 8.56093C10.8772 8.7562 11.1938 8.7562 11.389 8.56093L12.0077 7.94221L12.0507 7.89929C12.4203 7.52976 12.6568 7.2933 12.822 7.0502C13.4972 6.05623 13.5321 4.76252 12.8819 3.77248C12.7233 3.53102 12.4922 3.30001 12.1408 2.94871L12.0961 2.90408L12.0515 2.85942C11.7002 2.508 11.4692 2.27689 11.2277 2.11832C10.2377 1.46813 8.94398 1.50299 7.95001 2.17822C7.70691 2.34336 7.47044 2.57991 7.1009 2.94955L7.058 2.99247L6.43928 3.61119C6.24401 3.80645 6.24401 4.12303 6.43928 4.31829C6.63454 4.51355 6.95112 4.51355 7.14638 4.31829L7.7651 3.69957C8.1921 3.27257 8.35757 3.11027 8.51194 3.00541ZM4.31796 7.14672C4.51322 6.95146 4.51322 6.63487 4.31796 6.43961C4.12269 6.24435 3.80611 6.24435 3.61085 6.43961L2.99213 7.05833L2.94922 7.10124C2.57957 7.47077 2.34303 7.70724 2.17788 7.95035C1.50265 8.94432 1.4678 10.238 2.11799 11.2281C2.27656 11.4695 2.50766 11.7005 2.8591 12.0518L2.90374 12.0965L2.94837 12.1411C3.29967 12.4925 3.53068 12.7237 3.77214 12.8822C4.76219 13.5324 6.05589 13.4976 7.04986 12.8223C7.29296 12.6572 7.52943 12.4206 7.89896 12.051L7.89897 12.051L7.94188 12.0081L8.5606 11.3894C8.75586 11.1941 8.75586 10.8775 8.5606 10.6823C8.36533 10.487 8.04875 10.487 7.85349 10.6823L7.23477 11.301C6.80777 11.728 6.6423 11.8903 6.48794 11.9951C5.81158 12.4546 4.95642 12.4636 4.32107 12.0464C4.17681 11.9516 4.02274 11.8012 3.61085 11.3894C3.19896 10.9775 3.0486 10.8234 2.95385 10.6791C2.53661 10.0438 2.54561 9.18863 3.00507 8.51227C3.10993 8.35791 3.27224 8.19244 3.69924 7.76544L4.31796 7.14672ZM9.62172 6.08558C9.81698 5.89032 9.81698 5.57373 9.62172 5.37847C9.42646 5.18321 9.10988 5.18321 8.91461 5.37847L5.37908 8.91401C5.18382 9.10927 5.18382 9.42585 5.37908 9.62111C5.57434 9.81637 5.89092 9.81637 6.08619 9.62111L9.62172 6.08558Z"
    fill="currentColor"
  ></path>
</symbol>
<symbol viewBox="0 0 24 24" fill="none" stroke="currentColor" stroke-width="2" stroke-linecap="round" stroke-linejoin="round" id="lightbulb">
  <path d="M15 14c.2-1 .7-1.7 1.5-2.5 1-.9 1.5-2.2 1.5-3.5A6 6 0 0 0 6 8c0 1 .2 2.2 1.5 3.5.7.7 1.3 1.5 1.5 2.5" ></path>
  <path d="M9 18h6" ></path>
  <path d="M10 22h4" ></path>
</symbol>
<symbol viewBox="0 0 24 24" fill="none" stroke="currentColor" stroke-width="2" stroke-linecap="round" stroke-linejoin="round" id="layout-template">
  <rect width="18" height="7" x="3" y="3" rx="1" ></rect>
  <rect width="9" height="7" x="3" y="14" rx="1" ></rect>
  <rect width="5" height="7" x="16" y="14" rx="1" ></rect>
</symbol>
<symbol viewBox="0 0 24 24" fill="none" stroke="currentColor" stroke-width="2" stroke-linecap="round" stroke-linejoin="round" id="layout-panel-top">
  <rect width="18" height="7" x="3" y="3" rx="1" ></rect>
  <rect width="7" height="7" x="3" y="14" rx="1" ></rect>
  <rect width="7" height="7" x="14" y="14" rx="1" ></rect>
</symbol>
<symbol viewBox="0 0 15 15" fill="none" id="laptop">
  <path     fill-rule="evenodd"
    clip-rule="evenodd"
    d="M2 4.25C2 4.11193 2.11193 4 2.25 4H12.75C12.8881 4 13 4.11193 13 4.25V11.5H2V4.25ZM2.25 3C1.55964 3 1 3.55964 1 4.25V12H0V12.5C0 12.7761 0.223858 13 0.5 13H14.5C14.7761 13 15 12.7761 15 12.5V12H14V4.25C14 3.55964 13.4404 3 12.75 3H2.25Z"
    fill="currentColor"
  ></path>
</symbol>
<symbol viewBox="0 0 24 24" fill="none" stroke="currentColor" stroke-width="2" stroke-linecap="round" stroke-linejoin="round" id="info">
  <circle cx="12" cy="12" r="10" ></circle>
  <path d="M12 16v-4" ></path>
  <path d="M12 8h.01" ></path>
</symbol>
<symbol viewBox="0 0 24 24" fill="none" stroke="currentColor" stroke-width="2" stroke-linecap="round" stroke-linejoin="round" id="image">
  <rect width="18" height="18" x="3" y="3" rx="2" ry="2" ></rect>
  <circle cx="9" cy="9" r="2" ></circle>
  <path d="m21 15-3.086-3.086a2 2 0 0 0-2.828 0L6 21" ></path>
</symbol>
<symbol viewBox="0 0 15 15" fill="none" id="home">
  <path     fill-rule="evenodd"
    clip-rule="evenodd"
    d="M7.07926 0.222253C7.31275 -0.007434 7.6873 -0.007434 7.92079 0.222253L14.6708 6.86227C14.907 7.09465 14.9101 7.47453 14.6778 7.71076C14.4454 7.947 14.0655 7.95012 13.8293 7.71773L13 6.90201V12.5C13 12.7761 12.7762 13 12.5 13H2.50002C2.22388 13 2.00002 12.7761 2.00002 12.5V6.90201L1.17079 7.71773C0.934558 7.95012 0.554672 7.947 0.32229 7.71076C0.0899079 7.47453 0.0930283 7.09465 0.32926 6.86227L7.07926 0.222253ZM7.50002 1.49163L12 5.91831V12H10V8.49999C10 8.22385 9.77617 7.99999 9.50002 7.99999H6.50002C6.22388 7.99999 6.00002 8.22385 6.00002 8.49999V12H3.00002V5.91831L7.50002 1.49163ZM7.00002 12H9.00002V8.99999H7.00002V12Z"
    fill="currentColor"
  ></path>
</symbol>
<symbol viewBox="0 0 24 24" fill="none" stroke="currentColor" stroke-width="2" stroke-linecap="round" stroke-linejoin="round" id="heart-pulse">
  <path d="M19 14c1.49-1.46 3-3.21 3-5.5A5.5 5.5 0 0 0 16.5 3c-1.76 0-3 .5-4.5 2-1.5-1.5-2.74-2-4.5-2A5.5 5.5 0 0 0 2 8.5c0 2.3 1.5 4.05 3 5.5l7 7Z" ></path>
  <path d="M3.22 12H9.5l.5-1 2 4.5 2-7 1.5 3.5h5.27" ></path>
</symbol>
<symbol viewBox="0 0 24 24" fill="none" stroke="currentColor" stroke-width="2" stroke-linecap="round" stroke-linejoin="round" id="grid-2x2-plus">
  <path d="M12 3v17a1 1 0 0 1-1 1H5a2 2 0 0 1-2-2V5a2 2 0 0 1 2-2h14a2 2 0 0 1 2 2v6a1 1 0 0 1-1 1H3" ></path>
  <path d="M16 19h6" ></path>
  <path d="M19 22v-6" ></path>
</symbol>
<symbol viewBox="0 0 24 24" fill="none" stroke="currentColor" stroke-width="2" stroke-linecap="round" stroke-linejoin="round" id="graduation-cap">
  <path d="M21.42 10.922a1 1 0 0 0-.019-1.838L12.83 5.18a2 2 0 0 0-1.66 0L2.6 9.08a1 1 0 0 0 0 1.832l8.57 3.908a2 2 0 0 0 1.66 0z" ></path>
  <path d="M22 10v6" ></path>
  <path d="M6 12.5V16a6 3 0 0 0 12 0v-3.5" ></path>
</symbol>
<symbol fill="none" id="google-logo" viewBox="0 0 210 210" xml:space="preserve">
<path   fill-rule="evenodd"
  clip-rule="evenodd"
  fill="currentColor"
  d="M0,105C0,47.103,47.103,0,105,0c23.383,0,45.515,7.523,64.004,21.756l-24.4,31.696C133.172,44.652,119.477,40,105,40
	c-35.841,0-65,29.159-65,65s29.159,65,65,65c28.867,0,53.398-18.913,61.852-45H105V85h105v20c0,57.897-47.103,105-105,105
	S0,162.897,0,105z"></path>
</symbol>
<symbol viewBox="0 0 15 15" fill="none" id="github-logo">
  <path     fill-rule="evenodd"
    clip-rule="evenodd"
    d="M7.49933 0.25C3.49635 0.25 0.25 3.49593 0.25 7.50024C0.25 10.703 2.32715 13.4206 5.2081 14.3797C5.57084 14.446 5.70302 14.2222 5.70302 14.0299C5.70302 13.8576 5.69679 13.4019 5.69323 12.797C3.67661 13.235 3.25112 11.825 3.25112 11.825C2.92132 10.9874 2.44599 10.7644 2.44599 10.7644C1.78773 10.3149 2.49584 10.3238 2.49584 10.3238C3.22353 10.375 3.60629 11.0711 3.60629 11.0711C4.25298 12.1788 5.30335 11.8588 5.71638 11.6732C5.78225 11.205 5.96962 10.8854 6.17658 10.7043C4.56675 10.5209 2.87415 9.89918 2.87415 7.12104C2.87415 6.32925 3.15677 5.68257 3.62053 5.17563C3.54576 4.99226 3.29697 4.25521 3.69174 3.25691C3.69174 3.25691 4.30015 3.06196 5.68522 3.99973C6.26337 3.83906 6.8838 3.75895 7.50022 3.75583C8.1162 3.75895 8.73619 3.83906 9.31523 3.99973C10.6994 3.06196 11.3069 3.25691 11.3069 3.25691C11.7026 4.25521 11.4538 4.99226 11.3795 5.17563C11.8441 5.68257 12.1245 6.32925 12.1245 7.12104C12.1245 9.9063 10.4292 10.5192 8.81452 10.6985C9.07444 10.9224 9.30633 11.3648 9.30633 12.0413C9.30633 13.0102 9.29742 13.7922 9.29742 14.0299C9.29742 14.2239 9.42828 14.4496 9.79591 14.3788C12.6746 13.4179 14.75 10.7025 14.75 7.50024C14.75 3.49593 11.5036 0.25 7.49933 0.25Z"
    fill="currentColor"
  ></path>
</symbol>
<symbol viewBox="0 0 63 63" fill="none" id="file-upload">
<rect width="63" height="63" rx="31.5" fill="#E6F1FE"></rect>
<path opacity="0.4" d="M24.459 15.0833H32.0557C32.2127 15.0833 32.3477 15.2183 32.3477 15.3752V20.553C32.3477 25.6276 36.4771 29.7571 41.5518 29.7571H46.7295C46.8865 29.7571 47.0215 29.8921 47.0215 30.0491V39.4368C47.0215 42.2667 46.0452 44.35 44.5742 45.7317C43.0883 47.1273 40.9796 47.9162 38.542 47.9163H24.459C22.0212 47.9162 19.9127 47.1273 18.4268 45.7317C16.9557 44.35 15.9795 42.2668 15.9795 39.4368V23.5627C15.9795 20.7327 16.9556 18.6495 18.4268 17.2678C19.9127 15.8722 22.0212 15.0833 24.459 15.0833Z" fill="#0066FF" stroke="url(#paint0_linear_74_69)" stroke-width="3"></path>
<path d="M37.8018 15.5771C40.2786 18.0597 44.0017 21.8209 46.4629 24.3018C44.6541 24.3015 42.7034 24.2995 41.2451 24.2842H41.2285C39.312 24.284 37.8019 22.7489 37.8018 21.001V15.5771Z" fill="#0066FF" stroke="url(#paint1_linear_74_69)" stroke-width="3"></path>
<mask id="path-4-inside-1_74_69" fill="white">
<path d="M32.0014 36.3733C31.4818 35.8538 30.6218 35.8538 30.1023 36.3733L28.8123 37.6633V30.1562C28.8123 29.4217 28.2031 28.8125 27.4685 28.8125C26.7339 28.8125 26.1248 29.4217 26.1248 30.1562V37.6633L24.8348 36.3733C24.3152 35.8538 23.4552 35.8538 22.9356 36.3733C22.416 36.8929 22.416 37.7529 22.9356 38.2725L26.5189 41.8558C26.5368 41.8738 26.5548 41.8737 26.5548 41.8917C26.6623 41.9992 26.8056 42.0888 26.9489 42.1604C27.1281 42.2142 27.2893 42.25 27.4685 42.25C27.6477 42.25 27.8089 42.2142 27.9702 42.1425C28.1314 42.0708 28.2748 41.9813 28.4181 41.8558L32.0014 38.2725C32.521 37.7529 32.521 36.8929 32.0014 36.3733Z"></path>
</mask>
<path d="M32.0014 36.3733C31.4818 35.8538 30.6218 35.8538 30.1023 36.3733L28.8123 37.6633V30.1562C28.8123 29.4217 28.2031 28.8125 27.4685 28.8125C26.7339 28.8125 26.1248 29.4217 26.1248 30.1562V37.6633L24.8348 36.3733C24.3152 35.8538 23.4552 35.8538 22.9356 36.3733C22.416 36.8929 22.416 37.7529 22.9356 38.2725L26.5189 41.8558C26.5368 41.8738 26.5548 41.8737 26.5548 41.8917C26.6623 41.9992 26.8056 42.0888 26.9489 42.1604C27.1281 42.2142 27.2893 42.25 27.4685 42.25C27.6477 42.25 27.8089 42.2142 27.9702 42.1425C28.1314 42.0708 28.2748 41.9813 28.4181 41.8558L32.0014 38.2725C32.521 37.7529 32.521 36.8929 32.0014 36.3733Z" fill="#0066FF"></path>
<path d="M30.1023 36.3733L32.2236 38.4947L32.2236 38.4947L30.1023 36.3733ZM28.8123 37.6633H25.8123V44.906L30.9336 39.7847L28.8123 37.6633ZM26.1248 37.6633L24.0034 39.7847L29.1248 44.906V37.6633H26.1248ZM24.8348 36.3733L22.7134 38.4947L22.7134 38.4947L24.8348 36.3733ZM22.9356 38.2725L25.0569 36.1512L25.0569 36.1512L22.9356 38.2725ZM26.5189 41.8558L24.3976 43.9772H24.3976L26.5189 41.8558ZM26.5548 41.8917H23.5548V43.1343L24.4334 44.013L26.5548 41.8917ZM26.9489 42.1604L25.6073 44.8437L25.8389 44.9595L26.0869 45.0339L26.9489 42.1604ZM28.4181 41.8558L30.3936 44.1136L30.4688 44.0478L30.5394 43.9772L28.4181 41.8558ZM32.0014 38.2725L29.8801 36.1512L29.8801 36.1512L32.0014 38.2725ZM32.0014 36.3733L34.1227 34.252C32.4316 32.5609 29.6721 32.5609 27.9809 34.252L30.1023 36.3733L32.2236 38.4947C31.5716 39.1466 30.5321 39.1466 29.8801 38.4947L32.0014 36.3733ZM30.1023 36.3733L27.9809 34.252L26.6909 35.542L28.8123 37.6633L30.9336 39.7847L32.2236 38.4947L30.1023 36.3733ZM28.8123 37.6633H31.8123V30.1562H28.8123H25.8123V37.6633H28.8123ZM28.8123 30.1562H31.8123C31.8123 27.7648 29.8599 25.8125 27.4685 25.8125V28.8125V31.8125C26.5462 31.8125 25.8123 31.0785 25.8123 30.1562H28.8123ZM27.4685 28.8125V25.8125C25.0771 25.8125 23.1248 27.7648 23.1248 30.1562H26.1248H29.1248C29.1248 31.0785 28.3908 31.8125 27.4685 31.8125V28.8125ZM26.1248 30.1562H23.1248V37.6633H26.1248H29.1248V30.1562H26.1248ZM26.1248 37.6633L28.2461 35.542L26.9561 34.252L24.8348 36.3733L22.7134 38.4947L24.0034 39.7847L26.1248 37.6633ZM24.8348 36.3733L26.9561 34.252C25.2649 32.5609 22.5054 32.5609 20.8143 34.252L22.9356 36.3733L25.0569 38.4947C24.4049 39.1466 23.3654 39.1466 22.7134 38.4947L24.8348 36.3733ZM22.9356 36.3733L20.8143 34.252C19.1231 35.9432 19.1231 38.7027 20.8143 40.3938L22.9356 38.2725L25.0569 36.1512C25.7089 36.8032 25.7089 37.8427 25.0569 38.4947L22.9356 36.3733ZM22.9356 38.2725L20.8143 40.3938L24.3976 43.9772L26.5189 41.8558L28.6402 39.7345L25.0569 36.1512L22.9356 38.2725ZM26.5189 41.8558L24.3976 43.9772C24.5832 44.1628 24.7567 44.2884 24.8681 44.3627C24.9177 44.3957 24.9593 44.4213 24.9608 44.4222C24.9779 44.4327 24.9301 44.4037 24.8796 44.37C24.7947 44.3134 24.419 44.0656 24.094 43.6015C23.7102 43.0532 23.5548 42.4431 23.5548 41.8917H26.5548H29.5548C29.5548 41.3313 29.397 40.7144 29.0093 40.1606C28.6805 39.6908 28.2991 39.4385 28.2075 39.3775C28.1536 39.3416 28.1022 39.3103 28.1155 39.3185C28.1155 39.3185 28.1182 39.3202 28.1217 39.3223C28.1254 39.3246 28.131 39.3281 28.1379 39.3325C28.1515 39.3411 28.1718 39.354 28.1961 39.3703C28.2991 39.4389 28.4636 39.5579 28.6402 39.7345L26.5189 41.8558ZM26.5548 41.8917L24.4334 44.013C24.8618 44.4413 25.3227 44.7014 25.6073 44.8437L26.9489 42.1604L28.2906 39.4771C28.3049 39.4843 28.3451 39.5051 28.4025 39.5433C28.4573 39.5799 28.5582 39.6525 28.6761 39.7703L26.5548 41.8917ZM26.9489 42.1604L26.0869 45.0339C26.3871 45.124 26.8684 45.25 27.4685 45.25V42.25V39.25C27.7103 39.25 27.869 39.3044 27.811 39.2869L26.9489 42.1604ZM27.4685 42.25V45.25C28.0829 45.25 28.6582 45.1197 29.1886 44.8839L27.9702 42.1425L26.7518 39.4011C26.8435 39.3603 26.9583 39.3198 27.0921 39.2909C27.2264 39.2618 27.3542 39.25 27.4685 39.25V42.25ZM27.9702 42.1425L29.1886 44.8839C29.6184 44.6929 30.0182 44.4421 30.3936 44.1136L28.4181 41.8558L26.4426 39.5981C26.4794 39.5659 26.5292 39.5272 26.5902 39.4883C26.6513 39.4495 26.7074 39.4208 26.7518 39.4011L27.9702 42.1425ZM28.4181 41.8558L30.5394 43.9772L34.1227 40.3938L32.0014 38.2725L29.8801 36.1512L26.2968 39.7345L28.4181 41.8558ZM32.0014 38.2725L34.1227 40.3938C35.8139 38.7027 35.8139 35.9432 34.1227 34.252L32.0014 36.3733L29.8801 38.4947C29.2281 37.8427 29.2281 36.8032 29.8801 36.1512L32.0014 38.2725Z" fill="url(#paint2_linear_74_69)" mask="url(#path-4-inside-1_74_69)"></path>
<defs>
<linearGradient id="paint0_linear_74_69" x1="31.5003" y1="13.5833" x2="31.5003" y2="49.4166" gradientUnits="userSpaceOnUse">
<stop stop-color="white"></stop>
<stop offset="1" stop-color="white" stop-opacity="0.1"></stop>
</linearGradient>
<linearGradient id="paint1_linear_74_69" x1="42.3962" y1="13.6104" x2="42.3962" y2="25.8024" gradientUnits="userSpaceOnUse">
<stop stop-color="white"></stop>
<stop offset="1" stop-color="white" stop-opacity="0.1"></stop>
</linearGradient>
<linearGradient id="paint2_linear_74_69" x1="27.4685" y1="28.8125" x2="27.4685" y2="42.25" gradientUnits="userSpaceOnUse">
<stop stop-color="white"></stop>
<stop offset="1" stop-color="white" stop-opacity="0.1"></stop>
</linearGradient>
</defs>
</symbol>
<symbol viewBox="0 0 15 15" fill="none" id="file-text">
  <path     fill-rule="evenodd"
    clip-rule="evenodd"
    d="M3 2.5C3 2.22386 3.22386 2 3.5 2H9.08579C9.21839 2 9.34557 2.05268 9.43934 2.14645L11.8536 4.56066C11.9473 4.65443 12 4.78161 12 4.91421V12.5C12 12.7761 11.7761 13 11.5 13H3.5C3.22386 13 3 12.7761 3 12.5V2.5ZM3.5 1C2.67157 1 2 1.67157 2 2.5V12.5C2 13.3284 2.67157 14 3.5 14H11.5C12.3284 14 13 13.3284 13 12.5V4.91421C13 4.51639 12.842 4.13486 12.5607 3.85355L10.1464 1.43934C9.86514 1.15804 9.48361 1 9.08579 1H3.5ZM4.5 4C4.22386 4 4 4.22386 4 4.5C4 4.77614 4.22386 5 4.5 5H7.5C7.77614 5 8 4.77614 8 4.5C8 4.22386 7.77614 4 7.5 4H4.5ZM4.5 7C4.22386 7 4 7.22386 4 7.5C4 7.77614 4.22386 8 4.5 8H10.5C10.7761 8 11 7.77614 11 7.5C11 7.22386 10.7761 7 10.5 7H4.5ZM4.5 10C4.22386 10 4 10.2239 4 10.5C4 10.7761 4.22386 11 4.5 11H10.5C10.7761 11 11 10.7761 11 10.5C11 10.2239 10.7761 10 10.5 10H4.5Z"
    fill="currentColor"
  ></path>
</symbol>
<symbol viewBox="0 0 24 24" fill="none" stroke="currentColor" stroke-width="2" stroke-linecap="round" stroke-linejoin="round" id="fast-forward">
  <polygon points="13 19 22 12 13 5 13 19" ></polygon>
  <polygon points="2 19 11 12 2 5 2 19" ></polygon>
</symbol>
<symbol viewBox="0 0 24 24" fill="none" stroke="currentColor" stroke-width="2" stroke-linecap="round" stroke-linejoin="round" id="factory">
  <path d="M2 20a2 2 0 0 0 2 2h16a2 2 0 0 0 2-2V8l-7 5V8l-7 5V4a2 2 0 0 0-2-2H4a2 2 0 0 0-2 2Z" ></path>
  <path d="M17 18h1" ></path>
  <path d="M12 18h1" ></path>
  <path d="M7 18h1" ></path>
</symbol>
<symbol viewBox="0 0 24 24" fill="none" stroke="currentColor" stroke-width="2" stroke-linecap="round" stroke-linejoin="round" id="eye-off">
  <path d="M9.88 9.88a3 3 0 1 0 4.24 4.24" ></path>
  <path d="M10.73 5.08A10.43 10.43 0 0 1 12 5c7 0 10 7 10 7a13.16 13.16 0 0 1-1.67 2.68" ></path>
  <path d="M6.61 6.61A13.526 13.526 0 0 0 2 12s3 7 10 7a9.74 9.74 0 0 0 5.39-1.61" ></path>
  <line x1="2" x2="22" y1="2" y2="22" ></line>
</symbol>
<symbol viewBox="0 0 15 15" fill="none" id="exit">
  <path     fill-rule="evenodd"
    clip-rule="evenodd"
    d="M3 1C2.44771 1 2 1.44772 2 2V13C2 13.5523 2.44772 14 3 14H10.5C10.7761 14 11 13.7761 11 13.5C11 13.2239 10.7761 13 10.5 13H3V2L10.5 2C10.7761 2 11 1.77614 11 1.5C11 1.22386 10.7761 1 10.5 1H3ZM12.6036 4.89645C12.4083 4.70118 12.0917 4.70118 11.8964 4.89645C11.7012 5.09171 11.7012 5.40829 11.8964 5.60355L13.2929 7H6.5C6.22386 7 6 7.22386 6 7.5C6 7.77614 6.22386 8 6.5 8H13.2929L11.8964 9.39645C11.7012 9.59171 11.7012 9.90829 11.8964 10.1036C12.0917 10.2988 12.4083 10.2988 12.6036 10.1036L14.8536 7.85355C15.0488 7.65829 15.0488 7.34171 14.8536 7.14645L12.6036 4.89645Z"
    fill="currentColor"
  ></path>
</symbol>
<symbol viewBox="0 0 15 15" fill="none" id="envelope-closed">
  <path     fill-rule="evenodd"
    clip-rule="evenodd"
    d="M1 2C0.447715 2 0 2.44772 0 3V12C0 12.5523 0.447715 13 1 13H14C14.5523 13 15 12.5523 15 12V3C15 2.44772 14.5523 2 14 2H1ZM1 3L14 3V3.92494C13.9174 3.92486 13.8338 3.94751 13.7589 3.99505L7.5 7.96703L1.24112 3.99505C1.16621 3.94751 1.0826 3.92486 1 3.92494V3ZM1 4.90797V12H14V4.90797L7.74112 8.87995C7.59394 8.97335 7.40606 8.97335 7.25888 8.87995L1 4.90797Z"
    fill="currentColor"
  ></path>
</symbol>
<symbol viewBox="0 0 24 24" fill="none" stroke="currentColor" stroke-width="2" stroke-linecap="round" stroke-linejoin="round" id="ellipsis">
  <circle cx="12" cy="12" r="1" ></circle>
  <circle cx="19" cy="12" r="1" ></circle>
  <circle cx="5" cy="12" r="1" ></circle>
</symbol>
<symbol viewBox="0 0 15 15" fill="none" id="download">
  <path     fill-rule="evenodd"
    clip-rule="evenodd"
    d="M7.50005 1.04999C7.74858 1.04999 7.95005 1.25146 7.95005 1.49999V8.41359L10.1819 6.18179C10.3576 6.00605 10.6425 6.00605 10.8182 6.18179C10.994 6.35753 10.994 6.64245 10.8182 6.81819L7.81825 9.81819C7.64251 9.99392 7.35759 9.99392 7.18185 9.81819L4.18185 6.81819C4.00611 6.64245 4.00611 6.35753 4.18185 6.18179C4.35759 6.00605 4.64251 6.00605 4.81825 6.18179L7.05005 8.41359V1.49999C7.05005 1.25146 7.25152 1.04999 7.50005 1.04999ZM2.5 10C2.77614 10 3 10.2239 3 10.5V12C3 12.5539 3.44565 13 3.99635 13H11.0012C11.5529 13 12 12.5528 12 12V10.5C12 10.2239 12.2239 10 12.5 10C12.7761 10 13 10.2239 13 10.5V12C13 13.1041 12.1062 14 11.0012 14H3.99635C2.89019 14 2 13.103 2 12V10.5C2 10.2239 2.22386 10 2.5 10Z"
    fill="currentColor"
  ></path>
</symbol>
<symbol viewBox="0 0 15 15" fill="none" id="dots-horizontal">
  <path     fill-rule="evenodd"
    clip-rule="evenodd"
    d="M3.625 7.5C3.625 8.12132 3.12132 8.625 2.5 8.625C1.87868 8.625 1.375 8.12132 1.375 7.5C1.375 6.87868 1.87868 6.375 2.5 6.375C3.12132 6.375 3.625 6.87868 3.625 7.5ZM8.625 7.5C8.625 8.12132 8.12132 8.625 7.5 8.625C6.87868 8.625 6.375 8.12132 6.375 7.5C6.375 6.87868 6.87868 6.375 7.5 6.375C8.12132 6.375 8.625 6.87868 8.625 7.5ZM12.5 8.625C13.1213 8.625 13.625 8.12132 13.625 7.5C13.625 6.87868 13.1213 6.375 12.5 6.375C11.8787 6.375 11.375 6.87868 11.375 7.5C11.375 8.12132 11.8787 8.625 12.5 8.625Z"
    fill="currentColor"
  ></path>
</symbol>
<symbol viewBox="0 0 24 24" fill="none" stroke="currentColor" stroke-width="2" stroke-linecap="round" stroke-linejoin="round" id="dot">
  <circle cx="12.1" cy="12.1" r="1" ></circle>
</symbol>
<symbol viewBox="0 0 15 15" fill="none" id="dot-filled">
  <path     d="M9.875 7.5C9.875 8.81168 8.81168 9.875 7.5 9.875C6.18832 9.875 5.125 8.81168 5.125 7.5C5.125 6.18832 6.18832 5.125 7.5 5.125C8.81168 5.125 9.875 6.18832 9.875 7.5Z"
    fill="currentColor"
  ></path>
</symbol>
<symbol viewBox="0 0 24 24" fill="none" stroke="currentColor" stroke-width="2" stroke-linecap="round" stroke-linejoin="round" id="dices">
  <rect width="12" height="12" x="2" y="10" rx="2" ry="2" ></rect>
  <path d="m17.92 14 3.5-3.5a2.24 2.24 0 0 0 0-3l-5-4.92a2.24 2.24 0 0 0-3 0L10 6" ></path>
  <path d="M6 18h.01" ></path>
  <path d="M10 14h.01" ></path>
  <path d="M15 6h.01" ></path>
  <path d="M18 9h.01" ></path>
</symbol>
<symbol viewBox="0 0 24 24" fill="none" stroke="currentColor" stroke-width="2" stroke-linecap="round" stroke-linejoin="round" id="database">
  <ellipse cx="12" cy="5" rx="9" ry="3" ></ellipse>
  <path d="M3 5V19A9 3 0 0 0 21 19V5" ></path>
  <path d="M3 12A9 3 0 0 0 21 12" ></path>
</symbol>
<symbol viewBox="0 0 15 15" fill="none" id="cross-1">
  <path     fill-rule="evenodd"
    clip-rule="evenodd"
    d="M12.8536 2.85355C13.0488 2.65829 13.0488 2.34171 12.8536 2.14645C12.6583 1.95118 12.3417 1.95118 12.1464 2.14645L7.5 6.79289L2.85355 2.14645C2.65829 1.95118 2.34171 1.95118 2.14645 2.14645C1.95118 2.34171 1.95118 2.65829 2.14645 2.85355L6.79289 7.5L2.14645 12.1464C1.95118 12.3417 1.95118 12.6583 2.14645 12.8536C2.34171 13.0488 2.65829 13.0488 2.85355 12.8536L7.5 8.20711L12.1464 12.8536C12.3417 13.0488 12.6583 13.0488 12.8536 12.8536C13.0488 12.6583 13.0488 12.3417 12.8536 12.1464L8.20711 7.5L12.8536 2.85355Z"
    fill="currentColor"
  ></path>
</symbol>
<symbol viewBox="0 0 24 24" fill="none" stroke="currentColor" stroke-width="2" stroke-linecap="round" stroke-linejoin="round" id="component">
  <path d="M5.5 8.5 9 12l-3.5 3.5L2 12l3.5-3.5Z" ></path>
  <path d="m12 2 3.5 3.5L12 9 8.5 5.5 12 2Z" ></path>
  <path d="M18.5 8.5 22 12l-3.5 3.5L15 12l3.5-3.5Z" ></path>
  <path d="m12 15 3.5 3.5L12 22l-3.5-3.5L12 15Z" ></path>
</symbol>
<symbol viewBox="0 0 24 24" fill="none" stroke="currentColor" stroke-width="2" stroke-linecap="round" stroke-linejoin="round" id="code">
  <polyline points="16 18 22 12 16 6" ></polyline>
  <polyline points="8 6 2 12 8 18" ></polyline>
</symbol>
<symbol viewBox="0 0 15 15" fill="none" id="clock">
  <path     fill-rule="evenodd"
    clip-rule="evenodd"
    d="M7.50009 0.877014C3.84241 0.877014 0.877258 3.84216 0.877258 7.49984C0.877258 11.1575 3.8424 14.1227 7.50009 14.1227C11.1578 14.1227 14.1229 11.1575 14.1229 7.49984C14.1229 3.84216 11.1577 0.877014 7.50009 0.877014ZM1.82726 7.49984C1.82726 4.36683 4.36708 1.82701 7.50009 1.82701C10.6331 1.82701 13.1729 4.36683 13.1729 7.49984C13.1729 10.6328 10.6331 13.1727 7.50009 13.1727C4.36708 13.1727 1.82726 10.6328 1.82726 7.49984ZM8 4.50001C8 4.22387 7.77614 4.00001 7.5 4.00001C7.22386 4.00001 7 4.22387 7 4.50001V7.50001C7 7.63262 7.05268 7.7598 7.14645 7.85357L9.14645 9.85357C9.34171 10.0488 9.65829 10.0488 9.85355 9.85357C10.0488 9.65831 10.0488 9.34172 9.85355 9.14646L8 7.29291V4.50001Z"
    fill="currentColor"
  ></path>
</symbol>
<symbol viewBox="0 0 24 24" fill="none" stroke="currentColor" stroke-width="2" stroke-linecap="round" stroke-linejoin="round" id="clipboard-paste">
  <path d="M15 2H9a1 1 0 0 0-1 1v2c0 .6.4 1 1 1h6c.6 0 1-.4 1-1V3c0-.6-.4-1-1-1Z" ></path>
  <path d="M8 4H6a2 2 0 0 0-2 2v14a2 2 0 0 0 2 2h12a2 2 0 0 0 2-2M16 4h2a2 2 0 0 1 2 2v2M11 14h10" ></path>
  <path d="m17 10 4 4-4 4" ></path>
</symbol>
<symbol viewBox="0 0 24 24" fill="none" stroke="currentColor" stroke-width="2" stroke-linecap="round" stroke-linejoin="round" id="clipboard-check">
  <rect width="8" height="4" x="8" y="2" rx="1" ry="1" ></rect>
  <path d="M16 4h2a2 2 0 0 1 2 2v14a2 2 0 0 1-2 2H6a2 2 0 0 1-2-2V6a2 2 0 0 1 2-2h2" ></path>
  <path d="m9 14 2 2 4-4" ></path>
</symbol>
<symbol viewBox="0 0 24 24" fill="none" stroke="currentColor" stroke-width="2" stroke-linecap="round" stroke-linejoin="round" id="circle">
  <circle cx="12" cy="12" r="10" ></circle>
</symbol>
<symbol viewBox="0 0 24 24" fill="none" stroke="currentColor" stroke-width="2" stroke-linecap="round" stroke-linejoin="round" id="chevrons-up-down">
  <path d="m7 15 5 5 5-5" ></path>
  <path d="m7 9 5-5 5 5" ></path>
</symbol>
<symbol viewBox="0 0 15 15" fill="none" id="chevron-up">
  <path     fill-rule="evenodd"
    clip-rule="evenodd"
    d="M3.13523 8.84197C3.3241 9.04343 3.64052 9.05363 3.84197 8.86477L7.5 5.43536L11.158 8.86477C11.3595 9.05363 11.6759 9.04343 11.8648 8.84197C12.0536 8.64051 12.0434 8.32409 11.842 8.13523L7.84197 4.38523C7.64964 4.20492 7.35036 4.20492 7.15803 4.38523L3.15803 8.13523C2.95657 8.32409 2.94637 8.64051 3.13523 8.84197Z"
    fill="currentColor"
  ></path>
</symbol>
<symbol viewBox="0 0 24 24" fill="none" stroke="currentColor" stroke-width="2" stroke-linecap="round" stroke-linejoin="round" id="chevron-right">
  <path d="m9 18 6-6-6-6" ></path>
</symbol>
<symbol viewBox="0 0 24 24" fill="none" stroke="currentColor" stroke-width="2" stroke-linecap="round" stroke-linejoin="round" id="chevron-left">
  <path d="m15 18-6-6 6-6" ></path>
</symbol>
<symbol viewBox="0 0 15 15" fill="none" id="chevron-down">
  <path     fill-rule="evenodd"
    clip-rule="evenodd"
    d="M3.13523 6.15803C3.3241 5.95657 3.64052 5.94637 3.84197 6.13523L7.5 9.56464L11.158 6.13523C11.3595 5.94637 11.6759 5.95657 11.8648 6.15803C12.0536 6.35949 12.0434 6.67591 11.842 6.86477L7.84197 10.6148C7.64964 10.7951 7.35036 10.7951 7.15803 10.6148L3.15803 6.86477C2.95657 6.67591 2.94637 6.35949 3.13523 6.15803Z"
    fill="currentColor"
  ></path>
</symbol>
<symbol viewBox="0 0 15 15" fill="none" id="check">
  <path     fill-rule="evenodd"
    clip-rule="evenodd"
    d="M11.4669 3.72684C11.7558 3.91574 11.8369 4.30308 11.648 4.59198L7.39799 11.092C7.29783 11.2452 7.13556 11.3467 6.95402 11.3699C6.77247 11.3931 6.58989 11.3355 6.45446 11.2124L3.70446 8.71241C3.44905 8.48022 3.43023 8.08494 3.66242 7.82953C3.89461 7.57412 4.28989 7.55529 4.5453 7.78749L6.75292 9.79441L10.6018 3.90792C10.7907 3.61902 11.178 3.53795 11.4669 3.72684Z"
    fill="currentColor"
  ></path>
</symbol>
<symbol viewBox="0 0 24 24" fill="none" stroke="currentColor" stroke-width="2" stroke-linecap="round" stroke-linejoin="round" id="chart-spline">
  <path d="M3 3v16a2 2 0 0 0 2 2h16" ></path>
  <path d="M7 16c.5-2 1.5-7 4-7 2 0 2 3 4 3 2.5 0 4.5-5 5-7" ></path>
</symbol>
<symbol viewBox="0 0 15 15" fill="none" id="camera">
  <path     fill-rule="evenodd"
    clip-rule="evenodd"
    d="M2 3C1.44772 3 1 3.44772 1 4V11C1 11.5523 1.44772 12 2 12H13C13.5523 12 14 11.5523 14 11V4C14 3.44772 13.5523 3 13 3H2ZM0 4C0 2.89543 0.895431 2 2 2H13C14.1046 2 15 2.89543 15 4V11C15 12.1046 14.1046 13 13 13H2C0.895431 13 0 12.1046 0 11V4ZM2 4.25C2 4.11193 2.11193 4 2.25 4H4.75C4.88807 4 5 4.11193 5 4.25V5.75454C5 5.89261 4.88807 6.00454 4.75 6.00454H2.25C2.11193 6.00454 2 5.89261 2 5.75454V4.25ZM12.101 7.58421C12.101 9.02073 10.9365 10.1853 9.49998 10.1853C8.06346 10.1853 6.89893 9.02073 6.89893 7.58421C6.89893 6.14769 8.06346 4.98315 9.49998 4.98315C10.9365 4.98315 12.101 6.14769 12.101 7.58421ZM13.101 7.58421C13.101 9.57302 11.4888 11.1853 9.49998 11.1853C7.51117 11.1853 5.89893 9.57302 5.89893 7.58421C5.89893 5.5954 7.51117 3.98315 9.49998 3.98315C11.4888 3.98315 13.101 5.5954 13.101 7.58421Z"
    fill="currentColor"
  ></path>
</symbol>
<symbol viewBox="0 0 24 24" fill="none" stroke="currentColor" stroke-width="2" stroke-linecap="round" stroke-linejoin="round" id="calendar">
  <path d="M8 2v4" ></path>
  <path d="M16 2v4" ></path>
  <rect width="18" height="18" x="3" y="4" rx="2" ></rect>
  <path d="M3 10h18" ></path>
</symbol>
<symbol viewBox="0 0 24 24" fill="none" stroke="currentColor" stroke-width="2" stroke-linecap="round" stroke-linejoin="round" id="building">
  <rect width="16" height="20" x="4" y="2" rx="2" ry="2" ></rect>
  <path d="M9 22v-4h6v4" ></path>
  <path d="M8 6h.01" ></path>
  <path d="M16 6h.01" ></path>
  <path d="M12 6h.01" ></path>
  <path d="M12 10h.01" ></path>
  <path d="M12 14h.01" ></path>
  <path d="M16 10h.01" ></path>
  <path d="M16 14h.01" ></path>
  <path d="M8 10h.01" ></path>
  <path d="M8 14h.01" ></path>
</symbol>
<symbol viewBox="0 0 24 24" fill="none" stroke="currentColor" stroke-width="2" stroke-linecap="round" stroke-linejoin="round" id="brush">
  <path d="m9.06 11.9 8.07-8.06a2.85 2.85 0 1 1 4.03 4.03l-8.06 8.08" ></path>
  <path d="M7.07 14.94c-1.66 0-3 1.35-3 3.02 0 1.33-2.5 1.52-2 2.02 1.08 1.1 2.49 2.02 4 2.02 2.2 0 4-1.8 4-4.04a3.01 3.01 0 0 0-3-3.02z" ></path>
</symbol>
<symbol viewBox="0 0 24 24" fill="none" stroke="currentColor" stroke-width="2" stroke-linecap="round" stroke-linejoin="round" id="briefcase-business">
  <path d="M12 12h.01" ></path>
  <path d="M16 6V4a2 2 0 0 0-2-2h-4a2 2 0 0 0-2 2v2" ></path>
  <path d="M22 13a18.15 18.15 0 0 1-20 0" ></path>
  <rect width="20" height="14" x="2" y="6" rx="2" ></rect>
</symbol>
<symbol viewBox="0 0 24 24" fill="none" stroke="currentColor" stroke-width="2" stroke-linecap="round" stroke-linejoin="round" id="boxes">
  <path d="M2.97 12.92A2 2 0 0 0 2 14.63v3.24a2 2 0 0 0 .97 1.71l3 1.8a2 2 0 0 0 2.06 0L12 19v-5.5l-5-3-4.03 2.42Z" ></path>
  <path d="m7 16.5-4.74-2.85" ></path>
  <path d="m7 16.5 5-3" ></path>
  <path d="M7 16.5v5.17" ></path>
  <path d="M12 13.5V19l3.97 2.38a2 2 0 0 0 2.06 0l3-1.8a2 2 0 0 0 .97-1.71v-3.24a2 2 0 0 0-.97-1.71L17 10.5l-5 3Z" ></path>
  <path d="m17 16.5-5-3" ></path>
  <path d="m17 16.5 4.74-2.85" ></path>
  <path d="M17 16.5v5.17" ></path>
  <path d="M7.97 4.42A2 2 0 0 0 7 6.13v4.37l5 3 5-3V6.13a2 2 0 0 0-.97-1.71l-3-1.8a2 2 0 0 0-2.06 0l-3 1.8Z" ></path>
  <path d="M12 8 7.26 5.15" ></path>
  <path d="m12 8 4.74-2.85" ></path>
  <path d="M12 13.5V8" ></path>
</symbol>
<symbol viewBox="0 0 24 24" fill="none" stroke="currentColor" stroke-width="2" stroke-linecap="round" stroke-linejoin="round" id="box">
  <path d="M21 8a2 2 0 0 0-1-1.73l-7-4a2 2 0 0 0-2 0l-7 4A2 2 0 0 0 3 8v8a2 2 0 0 0 1 1.73l7 4a2 2 0 0 0 2 0l7-4A2 2 0 0 0 21 16Z" ></path>
  <path d="m3.3 7 8.7 5 8.7-5" ></path>
  <path d="M12 22V12" ></path>
</symbol>
<symbol viewBox="0 0 24 24" fill="none" stroke="currentColor" stroke-width="2" stroke-linecap="round" stroke-linejoin="round" id="battery-full">
  <rect width="16" height="10" x="2" y="7" rx="2" ry="2" ></rect>
  <line x1="22" x2="22" y1="11" y2="13" ></line>
  <line x1="6" x2="6" y1="11" y2="13" ></line>
  <line x1="10" x2="10" y1="11" y2="13" ></line>
  <line x1="14" x2="14" y1="11" y2="13" ></line>
</symbol>
<symbol viewBox="0 0 15 15" fill="none" id="avatar">
  <path     fill-rule="evenodd"
    clip-rule="evenodd"
    d="M0.877014 7.49988C0.877014 3.84219 3.84216 0.877045 7.49985 0.877045C11.1575 0.877045 14.1227 3.84219 14.1227 7.49988C14.1227 11.1575 11.1575 14.1227 7.49985 14.1227C3.84216 14.1227 0.877014 11.1575 0.877014 7.49988ZM7.49985 1.82704C4.36683 1.82704 1.82701 4.36686 1.82701 7.49988C1.82701 8.97196 2.38774 10.3131 3.30727 11.3213C4.19074 9.94119 5.73818 9.02499 7.50023 9.02499C9.26206 9.02499 10.8093 9.94097 11.6929 11.3208C12.6121 10.3127 13.1727 8.97172 13.1727 7.49988C13.1727 4.36686 10.6328 1.82704 7.49985 1.82704ZM10.9818 11.9787C10.2839 10.7795 8.9857 9.97499 7.50023 9.97499C6.01458 9.97499 4.71624 10.7797 4.01845 11.9791C4.97952 12.7272 6.18765 13.1727 7.49985 13.1727C8.81227 13.1727 10.0206 12.727 10.9818 11.9787ZM5.14999 6.50487C5.14999 5.207 6.20212 4.15487 7.49999 4.15487C8.79786 4.15487 9.84999 5.207 9.84999 6.50487C9.84999 7.80274 8.79786 8.85487 7.49999 8.85487C6.20212 8.85487 5.14999 7.80274 5.14999 6.50487ZM7.49999 5.10487C6.72679 5.10487 6.09999 5.73167 6.09999 6.50487C6.09999 7.27807 6.72679 7.90487 7.49999 7.90487C8.27319 7.90487 8.89999 7.27807 8.89999 6.50487C8.89999 5.73167 8.27319 5.10487 7.49999 5.10487Z"
    fill="currentColor"
  ></path>
</symbol>
<symbol viewBox="0 0 24 24" fill="none" stroke="currentColor" stroke-width="2" stroke-linecap="round" stroke-linejoin="round" id="arrow-up">
  <path d="m5 12 7-7 7 7" ></path>
  <path d="M12 19V5" ></path>
</symbol>
<symbol viewBox="0 0 15 15" fill="none" id="arrow-right">
  <path     fill-rule="evenodd"
    clip-rule="evenodd"
    d="M8.14645 3.14645C8.34171 2.95118 8.65829 2.95118 8.85355 3.14645L12.8536 7.14645C13.0488 7.34171 13.0488 7.65829 12.8536 7.85355L8.85355 11.8536C8.65829 12.0488 8.34171 12.0488 8.14645 11.8536C7.95118 11.6583 7.95118 11.3417 8.14645 11.1464L11.2929 8H2.5C2.22386 8 2 7.77614 2 7.5C2 7.22386 2.22386 7 2.5 7H11.2929L8.14645 3.85355C7.95118 3.65829 7.95118 3.34171 8.14645 3.14645Z"
    fill="currentColor"
  ></path>
</symbol>
<symbol viewBox="0 0 15 15" fill="none" id="arrow-left">
  <path     fill-rule="evenodd"
    clip-rule="evenodd"
    d="M6.85355 3.14645C7.04882 3.34171 7.04882 3.65829 6.85355 3.85355L3.70711 7H12.5C12.7761 7 13 7.22386 13 7.5C13 7.77614 12.7761 8 12.5 8H3.70711L6.85355 11.1464C7.04882 11.3417 7.04882 11.6583 6.85355 11.8536C6.65829 12.0488 6.34171 12.0488 6.14645 11.8536L2.14645 7.85355C1.95118 7.65829 1.95118 7.34171 2.14645 7.14645L6.14645 3.14645C6.34171 2.95118 6.65829 2.95118 6.85355 3.14645Z"
    fill="currentColor"
  ></path>
</symbol>
<symbol viewBox="0 0 24 24" fill="none" stroke="currentColor" stroke-width="2" stroke-linecap="round" stroke-linejoin="round" id="arrow-down">
  <path d="M12 5v14" ></path>
  <path d="m19 12-7 7-7-7" ></path>
</symbol>
<symbol viewBox="0 0 24 24" fill="none" stroke="currentColor" stroke-width="2" stroke-linecap="round" stroke-linejoin="round" id="arrow-down-to-line">
  <path d="M12 17V3" ></path>
  <path d="m6 11 6 6 6-6" ></path>
  <path d="M19 21H5" ></path>
</symbol>
<symbol viewBox="0 0 24 24" fill="none" stroke="currentColor" stroke-width="2" stroke-linecap="round" stroke-linejoin="round" id="align-left">
  <path d="M15 12H3" ></path>
  <path d="M17 18H3" ></path>
  <path d="M21 6H3" ></path>
</symbol>
</defs>
</svg>